<svg xmlns="http://www.w3.org/2000/svg" width="177.47" height="68.969" viewBox="0 0 177.47 68.969">
  <defs>
    <style>
      .cls-1 {
        fill: #111;
        fill-rule: evenodd;
      }
    </style>
  </defs>
  <path id="Visitors" class="cls-1" d="M1248.98,761.767a14.058,14.058,0,0,1-2.76-6.2,29.653,29.653,0,0,1-.44-7.4,45.5,45.5,0,0,1,1.12-7.6q0.885-3.761,1.84-6.76t1.72-4.84q0.765-1.84.84-1.92a0.689,0.689,0,0,0-.08-0.72,0.923,0.923,0,0,0-.64-0.32h-0.96a0.317,0.317,0,0,0-.24.08h-0.08l-0.24.24c0,0.053-.01.08-0.04,0.08s-0.04.027-.04,0.08c-0.05.107-.2,0.453-0.44,1.04s-0.55,1.387-.92,2.4a261.774,261.774,0,0,1-11.56,25.68,134.944,134.944,0,0,1-9.84,16.2,41.214,41.214,0,0,1-7.72,8.48q-3.285,2.439-5.2,2.52a2.876,2.876,0,0,1-1.44-.32,5.1,5.1,0,0,1-1.48-2.88,25,25,0,0,1-.52-4.56,44.957,44.957,0,0,1,.2-5.56c0.19-2,.41-3.987.68-5.96s0.56-3.88.88-5.72,0.61-3.453.88-4.84q0.48-2.64,1.28-6.2t1.68-7.28q0.885-3.72,1.8-7.36t1.64-6.52q0.72-2.88,1.2-4.64t0.48-1.84a1.11,1.11,0,0,0-.16-0.64,0.773,0.773,0,0,0-.56-0.24h-0.8a0.651,0.651,0,0,0-.64.56q-7.605,28.159-9.72,43.96t1.16,19.88a3.876,3.876,0,0,0,3.28,1.6h0.16q2.4-.081,5.68-2.44a37.831,37.831,0,0,0,7.24-7.44,110.536,110.536,0,0,0,8.56-13.2,210.712,210.712,0,0,0,9.64-19.72c-0.32,1.6-.57,3.253-0.76,4.96a31.252,31.252,0,0,0-.16,5,24.4,24.4,0,0,0,.68,4.68,14.417,14.417,0,0,0,1.68,4.08q3.435,5.6,11.12,6.08a0.6,0.6,0,0,0,.72-0.64c0.11-.427-0.11-0.693-0.64-0.8a12.964,12.964,0,0,1-8.08-3.04h0Zm18.88-11.68a1.751,1.751,0,0,0,.08-1.16,0.984,0.984,0,0,0-.56-0.68,0.884,0.884,0,0,0-.92.04,1.639,1.639,0,0,0-.76.92,1.611,1.611,0,0,0-.08,1.12,1,1,0,0,0,.56.72q0.96,0.4,1.68-.96h0Zm5.36,14.76a0.647,0.647,0,0,0-.56.2,72.822,72.822,0,0,1-5.64,4.8,38.985,38.985,0,0,1-3.92,2.64,11.763,11.763,0,0,1-2.44,1.12,3.155,3.155,0,0,1-1.28.16,0.746,0.746,0,0,1-.4-0.4,4.172,4.172,0,0,1-.04-2.28,23.861,23.861,0,0,1,.92-3.44c0.43-1.253.92-2.507,1.48-3.76s1.08-2.36,1.56-3.32a0.807,0.807,0,0,0,0-.72,0.923,0.923,0,0,0-.64-0.32h-0.72a0.719,0.719,0,0,0-.64.4q-6,12.559-2.88,14.8a2.814,2.814,0,0,0,1.6.48q3.915,0,14-9.12a0.647,0.647,0,0,0,.08-1.04A0.818,0.818,0,0,0,1273.22,764.847Zm11.12,2.4a56.82,56.82,0,0,0-7.68,4.28,33.033,33.033,0,0,1-.44-3.64,15.373,15.373,0,0,1,.12-3.36,8.985,8.985,0,0,1,.88-2.8,4.607,4.607,0,0,1,1.92-1.96,3.637,3.637,0,0,1,2.48-.48,1.671,1.671,0,0,1,1.52,2.08,0.782,0.782,0,0,0,.72.8,0.753,0.753,0,0,0,.48-0.2,0.645,0.645,0,0,0,.24-0.52,3.575,3.575,0,0,0-.64-2.36,3.124,3.124,0,0,0-2.08-1.24,4.271,4.271,0,0,0-2.32.16,7.233,7.233,0,0,0-2.08,1.16,7.952,7.952,0,0,0-1.68,1.84,10.552,10.552,0,0,0-1.12,2.12,8.952,8.952,0,0,0-.52,3.68c0.08,1.28.22,2.613,0.44,4l0.32,1.92a40.528,40.528,0,0,0-4.08,3.32,22.867,22.867,0,0,0-3.04,3.4,7.916,7.916,0,0,0-1.52,3.2,4.09,4.09,0,0,0,.32,2.8,2.942,2.942,0,0,0,1.44,1.4,4.122,4.122,0,0,0,2.04.36,6.491,6.491,0,0,0,2.16-.56,5.9,5.9,0,0,0,1.8-1.2,11.023,11.023,0,0,0,2.68-5.24,17.16,17.16,0,0,0,.2-7.08,54.106,54.106,0,0,1,7.72-4.4,33.778,33.778,0,0,1,6.92-2.48,0.738,0.738,0,1,0-.32-1.44A34.129,34.129,0,0,0,1284.34,767.247Zm-12.52,17.56a3.305,3.305,0,0,1-2.2.96,1.791,1.791,0,0,1-1.76-.96q-0.885-1.761,1.04-4.56a26.7,26.7,0,0,1,2.68-2.92,39.152,39.152,0,0,1,3.48-2.92,18.966,18.966,0,0,1-.08,3.84,12.709,12.709,0,0,1-1.2,3.92A9.257,9.257,0,0,1,1271.82,784.807Zm30.2-34.72a1.816,1.816,0,0,0,.08-1.16,1.009,1.009,0,0,0-.56-0.68,0.884,0.884,0,0,0-.92.04,1.639,1.639,0,0,0-.76.92,1.611,1.611,0,0,0-.08,1.12,0.982,0.982,0,0,0,.56.72q0.96,0.4,1.68-.96h0Zm5.36,14.76a0.637,0.637,0,0,0-.56.2,72.822,72.822,0,0,1-5.64,4.8,40.162,40.162,0,0,1-3.92,2.64,12,12,0,0,1-2.44,1.12,3.17,3.17,0,0,1-1.28.16,0.716,0.716,0,0,1-.4-0.4,4.077,4.077,0,0,1-.04-2.28,22.627,22.627,0,0,1,.92-3.44c0.42-1.253.92-2.507,1.48-3.76s1.08-2.36,1.56-3.32a0.88,0.88,0,0,0,0-.72,0.942,0.942,0,0,0-.64-0.32h-0.72a0.719,0.719,0,0,0-.64.4q-6,12.559-2.88,14.8a2.814,2.814,0,0,0,1.6.48q3.915,0,14-9.12a0.647,0.647,0,0,0,.08-1.04A0.818,0.818,0,0,0,1307.38,764.847Zm12.12,5.52a36.1,36.1,0,0,1-3.04,4.44,13.634,13.634,0,0,1-3.12,2.92,3.494,3.494,0,0,1-2.76.68,2.618,2.618,0,0,1-1.2-1.84,12.633,12.633,0,0,1-.28-3.24,29.131,29.131,0,0,1,.4-4.12,41.768,41.768,0,0,1,1-4.56q2.55-3.6,4.76-7.12,2.19-3.521,4.04-6.88c2.72-.587,5.54-1.093,8.48-1.52a69.3,69.3,0,0,1,8.72-.72,0.72,0.72,0,0,0,0-1.44,71.087,71.087,0,0,0-8.2.64q-4.125.56-8.04,1.36,2.235-4.08,3.96-7.68c1.14-2.4,2.08-4.56,2.8-6.48a29.072,29.072,0,0,0,1.44-4.88,5.321,5.321,0,0,0-.04-2.88,1.33,1.33,0,0,0-.88-0.84,1.611,1.611,0,0,0-1.36.04,4.4,4.4,0,0,0-1.84,1.6,32.43,32.43,0,0,0-2.08,3.2,88.873,88.873,0,0,0-4.72,8.8q-2.49,5.2-4.64,10.96-3.045.8-5.04,1.44c-1.34.427-2.4,0.787-3.2,1.08s-1.58.6-2.32,0.92a0.664,0.664,0,0,0-.4.96,0.617,0.617,0,0,0,.64.4,0.35,0.35,0,0,0,.24-0.08,2.586,2.586,0,0,0,.52-0.2c0.29-.133.8-0.32,1.52-0.56s1.66-.547,2.84-0.92,2.69-.827,4.56-1.36q-1.29,3.36-2.32,6.68-1.05,3.319-1.68,6.2a4.176,4.176,0,0,0-.16.88q-2.64,12,1.92,13.52a5.1,5.1,0,0,0,4.08-.84,15.993,15.993,0,0,0,3.72-3.52,32.312,32.312,0,0,0,3.08-4.8c0.9-1.733,1.68-3.267,2.32-4.6a0.752,0.752,0,0,0-.16-1.04,0.932,0.932,0,0,0-.52-0.16,0.478,0.478,0,0,0-.44.32A43.067,43.067,0,0,1,1319.5,770.367Zm6-41.52a2.687,2.687,0,0,1,1.56-1.24,3.432,3.432,0,0,1,0,2.16,28.248,28.248,0,0,1-1.4,4.6c-0.72,1.893-1.7,4.12-2.92,6.68s-2.7,5.36-4.4,8.4l-1.44.32c-0.48.107-.94,0.213-1.36,0.32q1.83-4.8,3.84-9.56,1.995-4.76,3.76-8.12A29.061,29.061,0,0,1,1325.5,728.847Zm-9.36,22.6c0.4-.107.81-0.213,1.24-0.32q-1.2,2.081-2.52,4.2t-2.84,4.44q0.63-1.76,1.32-3.8t1.56-4.2C1315.32,751.66,1315.74,751.554,1316.14,751.447Zm22.12,14.48c0.37-.8.7-1.613,1-2.44a10.558,10.558,0,0,0,.56-2.4,6.117,6.117,0,0,0-.12-2.12,2.927,2.927,0,0,0-1.04-1.6,2.048,2.048,0,0,0-2.36-.48,4.409,4.409,0,0,0-1.92,1.88,7.633,7.633,0,0,0-.96,2.96,4.629,4.629,0,0,0,.44,2.84,6.658,6.658,0,0,0,.68.92,4.448,4.448,0,0,0,1.08.92l0.32,0.16a0.47,0.47,0,0,1,.24.16,11.256,11.256,0,0,1-3.12,4.24,10.209,10.209,0,0,1-4.04,2.24,3.468,3.468,0,0,1-3.24-.6c-0.86-.72-1.12-2.2-0.8-4.44a13.454,13.454,0,0,1,1-3.36,16.185,16.185,0,0,1,2.08-3.48,22.724,22.724,0,0,1,3.16-3.32,23.514,23.514,0,0,1,4.16-2.88,1.565,1.565,0,0,0,.68-0.6,0.342,0.342,0,0,0-.08-0.44,1.4,1.4,0,0,0-.56-0.24,1.472,1.472,0,0,0-.68,0,16.381,16.381,0,0,0-4.36,2.6,24.6,24.6,0,0,0-3.84,3.88,20.687,20.687,0,0,0-2.76,4.48,11.718,11.718,0,0,0-1.12,4.4,5.8,5.8,0,0,0,1.36,3.96,4.583,4.583,0,0,0,3.76,1.8,6.215,6.215,0,0,0,2.64-.64,13.4,13.4,0,0,0,2.64-1.68,16.43,16.43,0,0,0,2.4-2.44,29.125,29.125,0,0,0,2-2.84,0.245,0.245,0,0,0,.08-0.16,14.31,14.31,0,0,0,4.08.28,26.409,26.409,0,0,0,6.16-1.24,0.683,0.683,0,0,0,.48-0.88,0.558,0.558,0,0,0-.88-0.48q-5.685,1.68-9.12,1.04h0Zm-1.68-.64a3.447,3.447,0,0,1-.96-1.36,4.251,4.251,0,0,1-.32-1.64,7.531,7.531,0,0,1,.16-1.6,4.168,4.168,0,0,1,.48-1.32,2.162,2.162,0,0,1,.72-0.96,0.737,0.737,0,0,1,1.12.08,2.814,2.814,0,0,1,.64,2.64,12.842,12.842,0,0,1-1.52,4.32Zm26.31,4.48q-1.515,2.319-2.84,4.12a21.57,21.57,0,0,1-2.36,2.8c-0.69.666-1.2,0.892-1.52,0.68a1.442,1.442,0,0,1-.56-0.56,3.5,3.5,0,0,1,.16-2c0.64-2.4,1.26-4.4,1.84-6s1.1-2.92,1.52-3.96,0.74-1.853.92-2.44a1.829,1.829,0,0,0,.04-1.36,1.121,1.121,0,0,0-.56-0.52c-0.21-.08-0.4-0.147-0.56-0.2a1.573,1.573,0,0,0-1.4.52c-0.5.453-1.09,0.973-1.76,1.56a14.489,14.489,0,0,1-2.28,1.64,5.818,5.818,0,0,1-3.04.76,3.929,3.929,0,0,0,.88-2.32,1.644,1.644,0,0,0-.64-1.52,1.036,1.036,0,0,0-1.12-.36,2.232,2.232,0,0,0-.96.68,5.133,5.133,0,0,0-.92,1.64,3.539,3.539,0,0,0-.28,1.56,1.861,1.861,0,0,0,1.6,1.96,6.635,6.635,0,0,0,3.24-.48,16.941,16.941,0,0,0,3.52-1.84,9.448,9.448,0,0,0,2.36-2.04c-0.58,1.493-1.09,2.813-1.52,3.96s-0.85,2.36-1.28,3.64-0.77,2.426-1.04,3.44c-0.16.532-.3,1.092-0.44,1.68a7.945,7.945,0,0,0-.2,1.72,4.411,4.411,0,0,0,.28,1.56,2.56,2.56,0,0,0,1,1.2,2.368,2.368,0,0,0,2.68-.52,17.907,17.907,0,0,0,3.08-3.24,52.9,52.9,0,0,0,3.2-4.68q1.6-2.6,3.04-4.84a1.019,1.019,0,0,0-.08-1.04,0.968,0.968,0,0,0-.56-0.16,0.546,0.546,0,0,0-.48.24C1364.89,766.647,1363.91,768.22,1362.89,769.767Zm14.64-2.52a58.06,58.06,0,0,0-7.68,4.28,35.636,35.636,0,0,1-.44-3.64,15.373,15.373,0,0,1,.12-3.36,9.255,9.255,0,0,1,.88-2.8,4.724,4.724,0,0,1,1.92-1.96,3.656,3.656,0,0,1,2.48-.48,1.666,1.666,0,0,1,1.52,2.08,0.782,0.782,0,0,0,.72.8,0.753,0.753,0,0,0,.48-0.2,0.645,0.645,0,0,0,.24-0.52,3.52,3.52,0,0,0-.64-2.36,3.1,3.1,0,0,0-2.08-1.24,4.278,4.278,0,0,0-2.32.16,7.367,7.367,0,0,0-2.08,1.16,7.952,7.952,0,0,0-1.68,1.84,11.089,11.089,0,0,0-1.12,2.12,9.122,9.122,0,0,0-.52,3.68c0.08,1.28.23,2.613,0.44,4l0.32,1.92a40.528,40.528,0,0,0-4.08,3.32,23.443,23.443,0,0,0-3.04,3.4,8.049,8.049,0,0,0-1.52,3.2,4.148,4.148,0,0,0,.32,2.8,2.942,2.942,0,0,0,1.44,1.4,4.122,4.122,0,0,0,2.04.36,6.491,6.491,0,0,0,2.16-.56,5.9,5.9,0,0,0,1.8-1.2,10.935,10.935,0,0,0,2.68-5.24,16.992,16.992,0,0,0,.2-7.08,54.659,54.659,0,0,1,7.72-4.4,33.987,33.987,0,0,1,6.92-2.48,0.738,0.738,0,1,0-.32-1.44A34.561,34.561,0,0,0,1377.53,767.247Zm-12.52,17.56a3.305,3.305,0,0,1-2.2.96,1.791,1.791,0,0,1-1.76-.96c-0.58-1.174-.24-2.694,1.04-4.56a26.7,26.7,0,0,1,2.68-2.92,39.152,39.152,0,0,1,3.48-2.92,18.267,18.267,0,0,1-.08,3.84,12.709,12.709,0,0,1-1.2,3.92A9.075,9.075,0,0,1,1365.01,784.807Z" transform="translate(-1207.84 -718.25)"/>
</svg>
