<svg xmlns="http://www.w3.org/2000/svg" width="16" height="14"><path d="M11.22 8.79a.278.278 0 0 0 0-.41L9.71 6.87l1.51-1.51a.278.278 0 0 0 0-.41l-1.3-1.31a.3.3 0 0 0-.41 0L8 5.15 6.49 3.64a.3.3 0 0 0-.41 0l-1.3 1.31a.278.278 0 0 0 0 .41l1.5 1.51-1.5 1.51a.278.278 0 0 0 0 .41l1.3 1.3a.278.278 0 0 0 .41 0L8 8.58l1.51 1.51a.278.278 0 0 0 .41 0zm-8.93 2.65V2.3h11.42v9.14H2.29zM16 1.44A1.436 1.436 0 0 0 14.57.01H1.43A1.43 1.43 0 0 0 0 1.44v10.85a1.43 1.43 0 0 0 1.43 1.43h13.14A1.436 1.436 0 0 0 16 12.29V1.44z" fill="#fff" fill-rule="evenodd"/></svg>