<svg enable-background="new 0 0 267.3 65" height="65" viewBox="0 0 267.3 65" width="267.3" xmlns="http://www.w3.org/2000/svg"><path d="m0 0h141.3v65h-141.3z" fill="#006549"/><path d="m0 65v-5.8c54.8-11 96.3 4.4 141.2-8.3v14.1z" fill="#af813b"/><path d="m0 59.2v5.8h141.3v-9.8c-44.9 12.7-86.5-7.1-141.3 4z" fill="#d8b177"/><path d="m55.3 36.9c1.3 0 1.7-1.4 2.8-3.8l8.3-20c.1-.2 1 0 1.1.5l8 20.2c.9 2.2 1.4 3.2 2.4 3.2v.5h-6.7v-.5c.7 0 .9-.7.9-1.2s-.3-1.2-.5-1.8l-1.8-4.5h-8.7l-1.8 4.5c-.3.6-.4 1.1-.5 1.4-.2.9.3 1.5 1.2 1.5v.5h-4.8v-.5zm10.3-18.5-4 9.8h7.7z" fill="#fff"/><path d="m108.7 36.9c1.3 0 1.7-1.4 2.8-3.8l8.3-20c.1-.2 1 0 1.1.5l8 20.2c.9 2.2 1.4 3.2 2.4 3.2v.5h-6.7v-.5c.7 0 .9-.7.9-1.2s-.3-1.2-.5-1.8l-1.8-4.5h-8.7l-1.9 4.6c-.3.6-.4 1.1-.5 1.4-.2.9.4 1.5 1.2 1.5v.5h-4.8v-.6zm10.4-18.5-4 9.8h7.7z" fill="#fff"/><path d="m53.4 31.5c-1.4 4-3.3 4.4-6.6 4.4h-4c-1.3 0-1.3-.7-1.3-1.6v-8.6h3.1c2.8 0 4.1.1 4.3 2.9h.8c-.1-1.2-.1-2.5-.1-3.7 0-1.3 0-2.6.1-3.5h-.7l-.2 1c-.3 1.6-.9 2.1-3.3 2.1h-4v-9.5c.8-.1 1.8-.1 3.1-.1 4.2 0 6.5.1 7.1 4h.8c-.2-1.8-.4-3.6-.4-5.4h-15.5v.5c1 .1 1.3.6 1.3 2v18.8c0 1.5-.3 1.9-1.3 2v.5h16.2c0-.6 1.2-4.9 1.5-5.8z" fill="#fff"/><path d="m106.2 36.9c-1-.1-1.3-.6-1.3-2v-18.5c0-1.5.3-2.3 1.3-2.4v-.5h-6.2v.5c1 .1 1.3.9 1.3 2.4v18.5c0 1.5-.3 1.9-1.3 2v.5h6.2z" fill="#fff"/><path d="m96 13.5h-15.5v.5c1 .1 1.3.6 1.3 2v18.5c0 1.5-.3 2.3-1.3 2.4v.5h6.2v-.5c-1-.1-1.2-.9-1.2-2.4v-8.7h3.1c2.8 0 4.1.1 4.3 2.9h.8c-.1-1.2-.1-2.5-.1-3.7 0-1.3 0-2.6.1-3.5h-.8l-.2 1c-.3 1.6-.9 2.1-3.3 2.1h-4v-9.6c.8-.1 1.8-.1 3.1-.1 4.2 0 6.4.1 7.1 4h.8c-.2-1.7-.4-3.6-.4-5.4z" fill="#fff"/><path d="m41.6 40.9c-5.9 6.5-13.8 1.6-22.3 1.9v-27.7c0-2.4.5-2.9 2.6-2.9h.8v-.9h-11.4v.9h.7c2.1 0 2.6.5 2.6 2.9v28.5c-1.1.4-2.2.8-3.3 1.5v.8c8-4.4 22.3 9.8 31.1-4.9h-.8z" fill="#fff"/><g fill="#3e3a39"><path d="m163.9 25.9c-2.2-1.9-2.8-4.4-2.8-6.6 0-1.5.5-4.2 2.6-6.1 1.6-1.5 3.7-2.4 7.1-2.4 1.4 0 2.2.1 3.2.2.9.1 1.6.3 2.2.4.2 0 .3.1.3.3s-.1.4-.1 1.2c0 .7 0 2-.1 2.4 0 .3-.1.5-.3.5s-.2-.2-.2-.5c0-.7-.3-1.5-.9-2.1-.7-.8-2.5-1.4-4.5-1.4-1.9 0-3.2.5-4.2 1.4-1.6 1.5-2.1 3.6-2.1 5.8 0 5.3 4.1 8 7.1 8 2 0 3.2-.2 4.1-1.3.4-.4.7-1.1.8-1.5s.1-.4.3-.4.2.2.2.3c0 .3-.3 2.2-.5 3-.1.4-.2.5-.6.6-.9.4-2.6.5-4 .5-3 .2-5.6-.5-7.6-2.3z"/><path d="m199 21.6c0 2.9 0 4.4.5 4.8.4.3 1 .5 2.7.5 1.2 0 2.1 0 2.6-.6.3-.3.5-.9.6-1.3 0-.2.1-.3.2-.3.2 0 .2.1.2.4 0 .2-.2 1.9-.3 2.6-.1.5-.2.6-1.4.6-1.6 0-2.8 0-3.8-.1-1 0-1.8-.1-2.7-.1-.2 0-.7 0-1.3 0-.5 0-1.1 0-1.5 0-.3 0-.4-.1-.4-.2s.1-.2.4-.2.6 0 .8-.1c.4-.1.6-.6.6-1.2.1-.9.1-2.7.1-4.8v-3.9c0-3.4 0-4 0-4.7 0-.8-.2-1.1-1-1.3-.2 0-.4-.1-.7-.1-.2 0-.4 0-.4-.2s.2-.2.5-.2c1.1 0 2.5.1 3.1.1.5 0 2.2-.1 3-.1.3 0 .5 0 .5.2s-.1.2-.4.2c-.2 0-.6 0-.9.1-.6.1-.8.5-.8 1.3v4.7 3.9z"/><path d="m223.1 17.6c0-3.4 0-4 0-4.7 0-.8-.2-1.1-1-1.3-.2 0-.6-.1-.9-.1-.2 0-.4 0-.4-.2s.2-.2.5-.2c1.2 0 2.6.1 3.3.1.5 0 1.9-.1 2.8-.1.3 0 .5 0 .5.2s-.1.2-.4.2c-.2 0-.4 0-.6.1-.6.1-.8.5-.8 1.3v4.7 3.1c0 3.2.6 4.6 1.7 5.5 1 .8 2 .9 2.8.9 1 0 2.2-.3 3.1-1.2 1.2-1.2 1.3-3.2 1.3-5.6v-2.8c0-3.4 0-4 0-4.7 0-.8-.2-1.1-1-1.3-.2 0-.6-.1-.8-.1s-.4 0-.4-.2.2-.2.5-.2c1.1 0 2.6.1 2.6.1.3 0 1.7-.1 2.6-.1.3 0 .5 0 .5.2s-.1.2-.4.2c-.2 0-.4 0-.6.1-.6.1-.8.5-.8 1.3v4.7 2.5c0 2.5-.2 5.1-2.1 6.7-1.6 1.4-3.2 1.6-4.7 1.6-1.2 0-3.3-.1-5-1.5-1.1-1-2-2.7-2-5.9v-3.3z"/><path d="m256.6 17.6c0-3.4 0-4 0-4.7 0-.8-.2-1.1-1-1.3-.2 0-.6-.1-.9-.1-.2 0-.4 0-.4-.2s.2-.2.5-.2c1.2 0 2.6.1 3 .1 1.1 0 2-.1 2.7-.1 4.1 0 4.8 2.2 4.8 3.4 0 1.8-1.1 2.9-2.3 3.9 1.8.6 4.1 2.2 4.1 4.8 0 2.4-1.9 4.9-6 4.9-.3 0-.9 0-1.6-.1-.7 0-1.3-.1-1.7-.1-.2 0-.7 0-1.3 0-.5 0-1.1 0-1.5 0-.3 0-.4-.1-.4-.2s.1-.2.4-.2.6 0 .8-.1c.4-.1.6-.6.7-1.2.1-.9.1-2.7.1-4.8zm2.7.4c0 .2.1.2.2.2.2 0 .5.1 1.1.1.7 0 1.2-.1 1.6-.4.6-.5.9-1.3.9-2.4 0-1.5-.9-3.5-2.8-3.5-.3 0-.5 0-.7 0s-.2.1-.2.4v5.6zm2.9 1.8c-.5-.3-1-.5-1.9-.5-.4 0-.6 0-1 0-.1 0-.1 0-.1.2v5.3c0 1.5.1 1.9.8 2.1.6.2 1.1.3 1.6.3 1 0 2.7-.5 2.7-2.9.1-1.4-.4-3.3-2.1-4.5z"/><path d="m161.8 49.1v-6.6l1.7.1c0 .1-.1.2-.4.3v6.3h-1.3zm7.8-7.2c0 .1-.1.2-.4.3v4.3c0 2.9-1 5.5-4.8 7.1-.2-.3-.7-.8-1-1 3.7-1.4 4.5-3.7 4.5-6.1v-4.6z"/><path d="m173.7 46.6h11.3v1.4h-10.8c-.1.1-.3.2-.4.2z"/><path d="m198.9 43.3c0 .1-.1.1-.2.2-1.1 5.1-3.7 8.1-8.2 9.8-.2-.3-.6-.8-.9-1.1 4.2-1.4 6.6-4.3 7.4-8h-8.5v-1.3h9l.2-.2z"/><path d="m209.8 44.8c-.1.1-.1.1-.2.1s-.1 0-.2 0c-.9.9-2 1.7-3 2.5.2.1.3.1.3.1 0 .1-.1.2-.3.2v5.9h-1.1v-5.5c-1.1.7-2.9 1.8-4.2 2.4-.1-.2-.4-.7-.7-.9 3.9-1.8 6.7-4.2 8.1-5.6z"/><path d="m224.7 42.8c0 .1-.1.1-.2.2-.7 1.6-1.8 3.3-3 4.4-.3-.2-.8-.6-1.2-.7 1-.8 1.9-2 2.3-3h-9.3v-1.3h10l.2-.1zm-5.2 2.6c0 .1-.1.2-.4.3-.4 3.1-1.5 6.2-4.2 7.8-.3-.2-.8-.7-1.2-.9 2.7-1.4 3.7-4.2 4-7.4z"/><path d="m237.8 44.2c0 .1-.2.2-.2.2-1.5 4.4-3.7 7.2-7.4 9.1-.2-.3-.6-.8-1-1 3.5-1.7 5.6-4.2 6.6-7.5h-4.4c-.7 1.1-1.8 2.3-3 3.2-.3-.3-.7-.7-1.1-.9 1.8-1.4 3.4-3.5 4.3-5.8l1.7.4c0 .1-.2.2-.4.2-.2.5-.5 1.1-.8 1.6h4.3l.2-.1z"/><path d="m251.9 46c-.1.1-.1.1-.2.2-1.2 4.1-3.3 6.1-7.4 7.3-.2-.3-.5-.8-.8-1.1 3.6-.9 5.8-2.8 6.6-5.5h-8.6v-1.3h9.2l.2-.1zm-1.4-2.7h-7.8v-1.3h7.8z"/><path d="m263.7 41.2c.6.5 1.3 1.3 1.7 1.9l-.3.2.6.3c-.1.1-.1.1-.2.2-1.1 5.1-3.6 8.1-8.1 9.7-.2-.4-.7-.8-.9-1.1 4.2-1.4 6.6-4.3 7.3-7.9h-8.3v-1.3h8.8l.1-.1c-.4-.5-.9-1.1-1.3-1.5zm2.9 1.9c-.3-.5-1.1-1.4-1.6-1.9l.6-.5c.6.5 1.3 1.3 1.6 1.9z"/></g><path d="m161.2 34.6v.6" fill="#00a0e9"/><path d="m161.2 35.2h106v-.6h-106" fill="#3e3a39"/></svg>