<svg height="18.406" viewBox="0 0 356.12 18.406" width="356.12" xmlns="http://www.w3.org/2000/svg"><path d="m1737.71 23.821v6.479c0 3.325-1.08 6.516-6.21 8.454a11.257 11.257 0 0 1 1.42 1.406c5.4-2.147 6.75-5.851 6.75-9.859v-5.986a.457.457 0 0 0 .49-.361zm-6.57 10.2v-8.775a.5.5 0 0 0 .51-.361l-2.43-.133v9.271h1.92zm15.31-1.254a.786.786 0 0 0 .6-.342h15.11v-1.9h-15.87zm31.17-7.58-.35.228h-12.61v1.8h11.91a14.558 14.558 0 0 1 -10.28 11.151 10.455 10.455 0 0 1 1.28 1.558c6.23-2.3 9.8-6.5 11.38-13.659a.587.587 0 0 0 .32-.266zm16.76 1.71a36.785 36.785 0 0 1 -11.32 7.884 7.384 7.384 0 0 1 .93 1.216 46.729 46.729 0 0 0 5.87-3.4v7.637h1.59v-8.187a.485.485 0 0 0 .4-.247c-.09-.038-.25-.095-.47-.171a40.8 40.8 0 0 0 4.12-3.439.97.97 0 0 0 .23.038.41.41 0 0 0 .32-.152zm20.17-2.508-.24.152h-13.98v1.8h12.91a10.907 10.907 0 0 1 -3.26 4.179 11.885 11.885 0 0 1 1.65 1.045 18.164 18.164 0 0 0 4.25-6.079.621.621 0 0 0 .33-.247zm-8.18 4.179c-.36 4.388-1.81 8.264-5.53 10.278a14.065 14.065 0 0 1 1.61 1.216c3.86-2.28 5.42-6.573 5.93-10.885a.491.491 0 0 0 .49-.361zm18.05-3.951a.554.554 0 0 0 .57-.437l-2.55-.133v13.718l-.27.4 1.09 1.786a.592.592 0 0 0 .34-.418c5.64-1.463 9.99-4.141 12.5-8.3a10.755 10.755 0 0 1 -1.39-1.349c-2.16 3.781-5.85 6.155-10.29 7.428v-12.712-5.6zm29.98-1.463a16.471 16.471 0 0 1 2.26 2.679l.97-.7a16.515 16.515 0 0 0 -2.36-2.679zm-2.79 1.1a17.383 17.383 0 0 1 2.28 2.717l.97-.7a15.3 15.3 0 0 0 -2.36-2.717zm-8.7 1.444a27.126 27.126 0 0 1 4.92 1.957l.89-1.615a32.532 32.532 0 0 0 -4.98-1.862zm.91 14.21a.473.473 0 0 0 .27-.494 21 21 0 0 0 12.7-11.037 16.794 16.794 0 0 1 -1.63-1.216c-2.54 5.642-6.84 8.853-12.78 10.79zm-3.08-9.461a31.117 31.117 0 0 1 4.98 1.8l.82-1.653a28.55 28.55 0 0 0 -5-1.729zm38.01-5.319a15.857 15.857 0 0 0 -2.13-2.812l-.87.646a14.846 14.846 0 0 1 2.03 2.812zm-2.47.589a15.252 15.252 0 0 0 -2.09-2.869l-.91.684a6.636 6.636 0 0 1 .76.874h-10.47v1.767h10.49v-1.744a11.218 11.218 0 0 1 1.25 1.976zm-7.47 5.566a8.9 8.9 0 0 1 -5.24 7.6 11.9 11.9 0 0 1 1.46 1.273 10.828 10.828 0 0 0 5.78-8.511.414.414 0 0 0 .42-.247l-.36-.095h6v-1.783h-14.99v1.767h6.93zm14.23-4.825a26.092 26.092 0 0 1 5.51 2.622l.99-1.71a23.528 23.528 0 0 0 -5.61-2.527zm1.9 13.355a.622.622 0 0 0 .31-.456c6.36-2.185 10.96-6.25 13.31-11.436a13.3 13.3 0 0 1 -1.75-1.1c-2.24 5.243-6.68 9-13.24 11.018zm29.2-15.141-.35.114h-9.97v1.8h8.93a25.986 25.986 0 0 1 -10.7 11.7 10.643 10.643 0 0 1 1.39 1.463 30.2 30.2 0 0 0 7.01-6.1 57.462 57.462 0 0 1 6.19 6.1l1.67-1.444a71.907 71.907 0 0 0 -6.64-6.136 29.639 29.639 0 0 0 3.66-6.4.6.6 0 0 0 .33-.266zm16.36 15.863h1.73v-1.155h5.28v1.064h1.8v-16.471h-8.81v16.566zm7.01-10.353v2.948h-5.28v-2.945h5.28zm0-1.653h-5.28v-2.846h5.28v2.849zm-5.28 6.25h5.28v2.964h-5.28v-2.96zm-2.51-6.136v-1.71h-2.6v-3.61c.3-.057.42-.152.43-.323l-2.16-.114v4.046h-2.96v1.71h2.73a19.827 19.827 0 0 1 -3.19 6.915 10.206 10.206 0 0 1 .89 1.653 18.47 18.47 0 0 0 2.53-5.11v8.568h1.73v-8.488c.66.931 1.38 1.995 1.73 2.641l1.06-1.463c-.4-.513-2.11-2.546-2.79-3.248v-1.463h2.6zm31.87 6.345h-4.91l.12-.988a.529.529 0 0 0 .38-.19h3.44v-6.132h-9.14v6.136h3.53c-.04.418-.07.817-.13 1.178h-4.64v1.6h4.2c-.62 1.349-1.88 2.2-4.54 2.736a5.113 5.113 0 0 1 .91 1.406c3.06-.665 4.51-1.8 5.25-3.4a6.92 6.92 0 0 0 4.8 3.4 6.807 6.807 0 0 1 1.09-1.52 6.149 6.149 0 0 1 -4.56-2.622h4.2v-1.6zm-13.11-6.383h2.24v-1.668h-2.24v-3.629a.388.388 0 0 0 .43-.3l-2.1-.114v4.046h-2.66v1.672h2.5a21.185 21.185 0 0 1 -2.92 6.953 7.478 7.478 0 0 1 .87 1.615 18.459 18.459 0 0 0 2.21-4.787v8.283h1.67v-8.648a30.588 30.588 0 0 1 1.46 2.736l1.01-1.349c-.35-.551-1.92-2.869-2.47-3.571v-1.235zm10.37.342v1.178h-5.68v-1.174h5.68zm0 2.394v1.178h-5.68v-1.175h5.68zm-4.07-4.1v-1.1h2.63v1.1h1.71v-1.1h2.39v-1.541h-2.39v-1.273a.432.432 0 0 0 .43-.3l-2.14-.133v1.706h-2.63v-1.273a.437.437 0 0 0 .44-.3l-2.15-.133v1.706h-2.5v1.539h2.5v1.1h1.71zm28.56 1.007h-7.75c.17-1.691.19-3.343.21-4.844a.449.449 0 0 0 .47-.361l-2.43-.152c-.02 1.691 0 3.534-.17 5.357h-7.28v1.862h7.01a11.311 11.311 0 0 1 -7.35 9.024 5.789 5.789 0 0 1 1.31 1.539 12.54 12.54 0 0 0 7.54-8.568c1.41 4.084 3.67 7.029 7.49 8.568a7.582 7.582 0 0 1 1.31-1.729c-3.99-1.387-6.29-4.616-7.47-8.834h7.11zm19.96 1.8.57-.627a18.1 18.1 0 0 0 -1.54-1.216 17.688 17.688 0 0 0 3.02-3.438.588.588 0 0 0 .34-.228l-1.35-.8-.32.095h-6.59v1.615h5.24a13.94 13.94 0 0 1 -1.63 1.9 20.531 20.531 0 0 0 -1.92-1.064l-1.16 1.159a23.158 23.158 0 0 1 3.99 2.6h-5.02v-6.223h-8.49v8.055h3.33v1.786h-3.29v1.638h3.29v2.5c-1.52.19-2.87.342-3.94.456l.52 2.014a.408.408 0 0 0 .32-.3c2.11-.3 5.47-.817 8.64-1.349l-.04-1.5c-1.25.171-2.52.323-3.76.475v-2.296h3.44v-1.638h-3.44v-1.786h3.42v-.114h3.08v6.82c0 .342-.06.342-1.05.342-.45 0-1.04-.019-1.63-.038a6.794 6.794 0 0 1 .55 1.786c3.04 0 3.93-.19 3.93-2.052v-6.858h1.85a26.212 26.212 0 0 1 -.93 2.869 7.886 7.886 0 0 0 1.46.361 28.117 28.117 0 0 0 1.56-4.578l.05-.3-.96-.057h-1.54zm-11.42-4.768v1.862h-1.94v-1.858h1.94zm1.52 1.862v-1.858h1.97v1.862h-1.97zm-1.52 1.368v1.881h-1.94v-1.877h1.94zm1.52 1.881v-1.877h1.97v1.881h-1.97zm30.44-7.447a15.893 15.893 0 0 1 1.96 2.774l.99-.608a14.383 14.383 0 0 0 -2.04-2.774zm-2.91.418a16.16 16.16 0 0 1 1.98 2.793l1.01-.627a15.062 15.062 0 0 0 -2.05-2.774zm-4.23 3.476h-5.76v6.117h1.88v-4.308h9.63c-.64 4.882-3.17 8.131-8.6 9.974a11 11 0 0 1 1.25 1.615c5.93-2.109 8.68-5.851 9.69-12.6a.941.941 0 0 0 .27-.247l-1.66-.7-.36.152h-4.44v-2.868a.566.566 0 0 0 .55-.437l-2.45-.133v3.438zm14.8 1.9v1.52h4.43v6.858h-5.55v1.5h12.77v-1.5h-5.55v-6.855h4.49v-1.52h-10.59zm16.9 4.027a.806.806 0 0 0 .61-.342h15.1v-1.9h-15.86zm29.64-8.321a.518.518 0 0 0 .47-.418l-2.39-.133v13.72l-.27.342 1.43 1.71a1.5 1.5 0 0 0 .38-.437 14.267 14.267 0 0 0 7.67-8.644 14.474 14.474 0 0 1 -1.69-1.045 11.7 11.7 0 0 1 -5.6 7.257v-12.348zm-7.31 1.786c-.04 4.977-.38 9.822-3.04 12.842a13.84 13.84 0 0 1 1.65.988c2.75-3.476 3.23-8 3.34-13.279a.459.459 0 0 0 .46-.38z" transform="translate(-1729.22 -22.313)"/></svg>