<svg enable-background="new 0 0 272.7 65.1" height="65.1" viewBox="0 0 272.7 65.1" width="272.7" xmlns="http://www.w3.org/2000/svg"><g fill="#3e3a39"><path d="m162.9 13.6c0 .1-.1.1-.2.1-.3 1.2-.8 3-1.7 4-.2-.1-.4-.3-.6-.3.9-1 1.4-2.7 1.7-4zm1.7-2.5h.9c0 .1-.1.1-.2.1v7.6c0 .5-.1.7-.5.8-.3.1-.9.1-1.8.1 0-.2-.2-.5-.3-.7h1.1c.7 0 .7 0 .7-.3v-7.6zm4.1 6.8c-.2-1.1-1-2.9-1.9-4.3l.6-.2c.9 1.4 1.7 3.1 1.9 4.3z"/><path d="m171 11.7h7.9v8.1h-.7v-.6h-6.6v.6h-.6zm3.6.6h-2.9v2.7h2.9zm-2.9 3.4v2.8h2.9v-2.8zm6.5-.7v-2.8h-3v2.8zm-3 3.5h3v-2.8h-3z"/><path d="m182.1 13.8v-.2c-.2.2-.5.4-.8.6-.1-.2-.3-.4-.5-.5 1.3-.8 2.2-1.9 2.6-2.8l.8.1c0 .1-.1.1-.2.1-.1.2-.2.3-.3.5h2.8.1l.5.3s-.1.1-.1.1c-.2.4-.5.8-.8 1.2h2.1v3.3h-3.7c.6.2 1.2.6 1.5.9l-.4.5c-.4-.4-1.1-.8-1.7-1.1l.3-.3h-2.4v-.6h5.8v-.9h-5.5v-.5h5.5v-.8h-5.6zm.6 3.7c-.2.8-.6 1.5-1.4 2l-.5-.4c.7-.4 1.1-1.1 1.3-1.8zm2.7-4.2c.2-.3.5-.7.7-1h-2.8c-.2.3-.5.7-.9 1zm-1.5 5.5c0 .2.1.3.6.3h1.7c.4 0 .5-.1.5-1.1.1.1.4.2.6.2-.1 1.2-.3 1.4-1 1.4h-1.8c-.9 0-1.1-.2-1.1-.8v-1.4h.8c0 .1-.1.1-.2.1v1.3zm5.1.7c-.3-.6-1.1-1.4-1.8-2l.5-.3c.7.6 1.5 1.4 1.8 1.9z"/><path d="m199.2 12.3h-2.9c0 .1-.1.1-.2.1-.2.4-.5.8-.7 1.2l.3.1c0 .1-.1.1-.2.1v6h-.7v-5.5c-1 1.2-2.2 2.4-3.6 3.2-.1-.2-.3-.4-.4-.5 2-1.1 3.7-2.9 4.6-4.7h-4.4v-.6h8.3v.6zm-.3 5.1c-.7-.7-2.1-1.7-3.3-2.4l.5-.4c1.1.7 2.6 1.7 3.3 2.4z"/><path d="m209.5 13.3h.3v.2c-.1 4.2-.2 5.5-.5 5.9-.3.3-.6.3-1 .3-.2 0-.5 0-.8 0 0-.2-.1-.4-.2-.6h1.1c.1 0 .2 0 .3-.1.2-.3.4-1.6.4-5.2h-1.4c0 2-.2 4.3-2 6-.1-.1-.3-.3-.5-.4.2-.2.3-.3.5-.5-1.6.2-3.2.4-4.2.5 0 .1-.1.1-.1.1l-.2-.7c.6 0 1.3-.1 2.1-.2v-.9h-1.8v-.5h1.8v-.6h-1.8v-2.8h1.8v-.7h-2.1v-.5h2.1v-.6c-.6.1-1.3.1-1.9.1 0-.1-.1-.3-.2-.5 1.4-.1 3.1-.3 4.1-.5l.5.5s0 0-.1 0h-.1c-.4.1-1 .2-1.6.3 0 0-.1 0-.2.1v.7h2.1v.5h-2.1v.7h1.9v2.8h-1.9v.6h1.9v.5h-1.9v.8c.6-.1 1.3-.1 2-.2v.4c1.2-1.5 1.3-3.4 1.3-5h-1.1v-.6h1.2v-2.2l.8.1c0 .1-.1.1-.2.1v2h1.7zm-7.5 1v.7h1.2v-.7zm0 1.9h1.2v-.7h-1.2zm3.1-1.9h-1.3v.7h1.3zm0 1.9v-.7h-1.3v.7z"/><path d="m218.7 12.6c0 .1-.1.1-.2.1-.2.4-.4.8-.6 1.2h2.6v.6h-7.3v.9c0 1.3-.2 3.1-1 4.5-.1-.1-.4-.3-.5-.4.8-1.2.9-2.9.9-4v-1.5h1.9c-.1-.4-.3-.9-.5-1.3l.5-.1h-2.1v-.6h3.4v-1h.8c0 .1-.1.1-.2.1v.7h3.5v.6h-1.8zm-1.5 5.1v1.3h3.2v.6h-6.9v-.6h3.1v-1.3h-2.2v-.5h2.2v-1.1h-1.9c-.2.4-.5.7-.7.9-.1-.1-.3-.2-.5-.3.5-.5.9-1.3 1.2-2l.7.2c0 .1-.1.1-.2.1-.1.2-.2.4-.2.6h1.6v-.9h.8c0 .1-.1.1-.2.1v.7h2.6v.5h-2.6v1.1h2.4v.5h-2.4zm.1-3.9c.2-.4.4-.9.6-1.3h-3.4c.2.4.5.9.6 1.3l-.5.1h3.1z"/><path d="m227 12.7c0 .1-.1.2-.2.2-.3 3-1.3 5.5-2.9 5.5-.8 0-1.5-.8-1.5-2.3 0-2.3 1.8-4.2 4.3-4.2 2.7 0 3.9 1.7 3.9 3.6 0 2.3-1.3 3.3-3.6 3.9-.1-.2-.2-.4-.4-.6 2.2-.4 3.3-1.5 3.3-3.3 0-1.6-1-3-3.2-3-.1 0-.2 0-.3 0zm-1-.1c-1.9.2-3.1 1.8-3.1 3.5 0 1 .4 1.7.9 1.7 1.2-.1 2-2.6 2.2-5.2z"/><path d="m235.8 11.5c0 .1-.1.1-.2.1-.7 1.5-1.8 2.9-3 3.8-.1-.1-.3-.3-.5-.5 1.2-.8 2.3-2.2 2.9-3.7zm3.3 3.1h.2.4v.2c-.2 3.1-.3 4.2-.6 4.5s-.6.3-1.1.3c-.3 0-.7 0-1.1 0 0-.2-.1-.5-.2-.6.6.1 1.3.1 1.5.1s.3 0 .4-.1c.2-.2.4-1.2.5-3.8h-2.6c-.3 1.8-.8 3.7-3.3 4.6-.1-.2-.3-.4-.4-.5 2.3-.8 2.8-2.4 3.1-4h-2v-.6h5.2zm-.8-3.4c.6 1.3 1.9 2.8 2.9 3.5-.2.1-.4.4-.5.6-1.1-.8-2.3-2.4-3-3.8z"/><path d="m246 12.6v.5h-3.1v-.5zm-.3 3.9v2.8h-1.9v.5h-.5v-3.2h2.4zm-2.4-2.1v-.5h2.5v.5zm0 1.3v-.5h2.5v.5zm2.4-4.4v.5h-2.4v-.5zm-.5 5.7h-1.4v1.7h1.4zm4.2-.1c.1.4.3.7.5 1 .4-.2.9-.5 1.2-.8l.5.4s-.1.1-.2 0c-.3.2-.8.5-1.2.7.4.5 1 .8 1.6 1-.1.1-.3.3-.4.5-1.3-.5-2.2-1.5-2.7-2.9-.3.3-.6.5-.9.7l.2.1c0 .1-.1.1-.2.1v1.1c.5-.1 1.1-.2 1.6-.2v.5c-1 .2-2 .4-2.7.5 0 .1-.1.1-.1.1l-.3-.6c.3 0 .6-.1.9-.1v-1c-.4.2-.8.4-1.2.6-.1-.1-.2-.3-.3-.4.8-.3 1.6-.7 2.2-1.2h-2v-.5h1.6v-.6h-1v-.5h1v-.6h-1.2v-.5h1.2v-.7h.8c0 .1-.1.1-.2.1v.6h1.4v-.7h.8c0 .1-.1.1-.2.1v.6h1.3v.5h-1.3v.6h1.1v.5h-1.1v.6h1.5v.5h-2.2zm-1-4.1c0 .1-.1.1-.2.1-.5.4-1.2.9-1.9 1.1-.1-.1-.3-.3-.4-.4.6-.2 1.4-.6 1.8-1.1zm3.2-.9v.5h-5.5v-.5h2.4v-.9h.8c0 .1-.1.1-.2.1v.7h2.5zm-3.4 2.9v.6h1.4v-.6zm0 1.1v.6h1.4v-.6zm3.1-2c-.4-.4-1.3-.8-1.9-1.1l.4-.3c.7.3 1.5.7 1.9 1.1z"/><path d="m255 14.3c-.4.6-.8 1.1-1.2 1.6-.1-.2-.2-.4-.3-.6.9-1 1.8-2.6 2.4-4.3l.8.3c0 .1-.1.1-.2.1-.2.7-.5 1.3-.9 2l.3.1c0 .1-.1.1-.2.1v6.3h-.7zm4.8 4.6h2.8v.6h-6.2v-.6h2.8v-2.5h-2.3v-.6h2.3v-2.2h-2.6v-.6h3.4c-.4-.4-1.4-1.1-2.1-1.5l.4-.5c.7.4 1.7 1 2.1 1.5l-.4.5h2.4v.6h-2.6v2.2h2.3v.6h-2.3z"/><path d="m268.3 18.4c0 .4.1.5.7.5h2.1c.6 0 .6-.2.7-1.5.2.1.4.2.6.3-.1 1.4-.3 1.8-1.3 1.8h-2.1c-1.1 0-1.4-.2-1.4-1.1v-1.7l-3.4.4-.1-.6 3.5-.4v-1.6c-.8.2-1.7.4-2.6.6 0-.2-.1-.4-.2-.5 1.9-.4 4-.9 5.1-1.4l.6.5h-.1-.1c-.6.2-1.3.5-2.1.7h.2c0 .1-.1.1-.2.1v1.5l4.3-.6.1.6-4.4.6v1.8zm-3.3-5.6v1.4h-.6v-2h3.6v-1.2l.9.1c0 .1-.1.1-.2.1v1h3.7v2h-.7v-1.4z"/><path d="m161.3 44v-11.6l2.3.1c0 .2-.2.4-.6.4v11.1zm13.3-12.6c0 .2-.2.4-.6.4v7.6c0 5-1.7 9.6-8.6 12.3-.2-.4-.8-1-1.2-1.3 6.6-2.5 8.1-6.6 8.1-11v-8.2z"/><path d="m182.1 39.9h20v1.7h-19.1c-.1.2-.5.4-.8.5z"/><path d="m226.2 33.8c-.1.1-.2.2-.3.3-1.9 9.1-6.6 14.5-14.4 17.2-.3-.4-.8-1.1-1.1-1.4 7.4-2.4 12-7.8 13.4-15h-15.7v-1.6h16.3l.3-.2z"/><path d="m245.4 36.3c-.1.1-.2.2-.4.2-.1 0-.2 0-.3 0-1.5 1.5-3.5 3.2-5.3 4.4.3.1.5.2.5.2 0 .1-.2.2-.4.3v10.4h-1.5v-10c-2 1.4-5.3 3.3-7.9 4.6-.2-.3-.6-.9-.9-1.1 4.1-1.9 10.3-5.5 14.4-10.1z"/><path d="m272.2 32.9c0 .1-.2.2-.3.2-1.3 3.1-3.4 5.7-5.7 7.7-.4-.3-1-.7-1.5-1 2.2-1.6 4-3.9 4.8-5.9h-17.1v-1.6h18.1l.3-.1zm-9.3 4.4c0 .2-.2.4-.6.4-.7 5.7-2.6 11-7.6 13.9-.3-.3-1-.8-1.4-1.1 4.9-2.7 6.6-7.7 7.2-13.5z"/></g><path d="m0 0h141.4v65.1h-141.4z" fill="#006549"/><path d="m0 65.1v-5.8c54.9-11 96.5 4.4 141.4-8.3v14.1z" fill="#af813b"/><path d="m0 59.2v5.8h141.4v-9.8c-44.9 12.7-86.5-7-141.4 4z" fill="#d8b177"/><path d="m55.3 36.9c1.3 0 1.7-1.4 2.8-3.8l8.3-20c.1-.2 1 0 1.1.5l8 20.2c.9 2.2 1.4 3.2 2.4 3.2v.5h-6.7v-.5c.7 0 .9-.7.9-1.2s-.3-1.2-.5-1.8l-1.8-4.5h-8.7l-1.9 4.6c-.3.6-.4 1.1-.5 1.4-.2.9.4 1.5 1.2 1.5v.5h-4.8v-.6zm10.4-18.5-4 9.8h7.7z" fill="#fff"/><path d="m108.8 36.9c1.3 0 1.7-1.4 2.8-3.8l8.3-20c.1-.2 1 0 1.1.5l8 20.2c.9 2.2 1.4 3.2 2.4 3.2v.5h-6.7v-.5c.7 0 .9-.7.9-1.2s-.3-1.2-.5-1.8l-1.8-4.5h-8.7l-1.9 4.6c-.3.6-.4 1.1-.5 1.4-.2.9.3 1.5 1.2 1.5v.5h-4.8v-.6zm10.4-18.5-4 9.8h7.8z" fill="#fff"/><path d="m53.5 31.6c-1.4 4-3.3 4.4-6.6 4.4h-4c-1.3 0-1.3-.7-1.3-1.6v-8.6h3.1c2.8 0 4.1.1 4.3 2.9h.8c-.1-1.2-.1-2.5-.1-3.7 0-1.3 0-2.6.1-3.5h-.8l-.2 1c-.3 1.6-.9 2.1-3.3 2.1h-4v-9.6c.8-.1 1.8-.1 3.1-.1 4.2 0 6.5.1 7.1 4h.8c-.2-1.8-.4-3.6-.4-5.4h-15.5v.5c1 .1 1.3.6 1.3 2v18.8c0 1.5-.3 1.9-1.3 2v.5h16.2c0-.6 1.2-4.9 1.5-5.8h-.8z" fill="#fff"/><path d="m106.3 36.9c-1-.1-1.3-.6-1.3-2v-18.5c0-1.5.3-2.3 1.3-2.4v-.5h-6.3v.5c1 .1 1.3.9 1.3 2.4v18.5c0 1.5-.3 1.9-1.3 2v.5h6.2v-.5z" fill="#fff"/><path d="m96.1 13.6h-15.5v.4c1 .1 1.3.6 1.3 2v18.5c0 1.5-.3 2.3-1.3 2.4v.5h6.2v-.5c-1-.1-1.2-.9-1.2-2.4v-8.7h3.1c2.8 0 4.1.1 4.3 2.9h.8c-.1-1.2-.1-2.5-.1-3.7 0-1.3 0-2.6.1-3.5h-.8l-.2 1c-.3 1.6-.9 2.1-3.3 2.1h-4v-9.6c.8-.1 1.8-.1 3.1-.1 4.2 0 6.5.1 7.1 4h.8c-.2-1.7-.4-3.6-.4-5.3z" fill="#fff"/><path d="m41.6 41c-5.9 6.5-13.8 1.6-22.3 1.9v-27.8c0-2.4.5-2.9 2.6-2.9h.8v-.9h-11.4v.9h.7c2.1 0 2.6.5 2.6 2.9v28.6c-1.1.4-2.2.8-3.3 1.5v.8c8-4.4 22.3 9.8 31.1-5z" fill="#fff"/></svg>