<svg height="104" preserveAspectRatio="xMinYMid" width="227" xmlns="http://www.w3.org/2000/svg"><path d="m.02 0h226.52v104.2h-226.52z" fill="#006549"/><path d="m0 104.2v-9.34c87.92-17.7 154.5 7 226.49-13.31v22.65z" fill="#af813b"/><path d="m0 94.86v9.34h226.51v-15.76c-71.99 20.38-138.57-11.28-226.51 6.42z" fill="#d8b177"/><g fill="#fff"><path d="m88.61 59.18c2.07 0 2.8-2.19 4.44-6.12l13.37-32.06c.16-.37 1.56 0 1.83.75l12.8 32.4c1.43 3.45 2.32 5.06 3.92 5.06v.73h-10.78v-.73c1.12 0 1.51-1.12 1.51-1.87a9.65 9.65 0 0 0 -.85-2.92l-2.85-7.3h-14l-3 7.43a15.87 15.87 0 0 0 -.74 2.22 1.85 1.85 0 0 0 2 2.41v.73h-7.7zm16.64-29.66-6.37 15.69h12.42zm69.07 29.66c2.07 0 2.8-2.19 4.44-6.12l13.37-32.06c.16-.37 1.56 0 1.83.75l12.8 32.4c1.43 3.45 2.31 5.06 3.92 5.06v.73h-10.78v-.73c1.12 0 1.51-1.12 1.51-1.87a9.65 9.65 0 0 0 -.85-2.92l-2.81-7.27h-13.95l-3 7.43a15 15 0 0 0 -.75 2.22 1.85 1.85 0 0 0 2 2.41v.73h-7.7zm16.68-29.66-6.4 15.69h12.4zm-105.31 21.05c-2.23 6.42-5.31 7.11-10.56 7.11h-6.42c-2.07 0-2.07-1.06-2.07-2.55v-13.73h5c4.51 0 6.58.1 6.95 4.72h1.28c-.16-2-.21-4-.21-6s0-4.13.21-5.68h-1.24l-.32 1.66c-.48 2.49-1.47 3.39-5.3 3.39h-6.37v-15.38c1.28-.11 2.92-.16 5-.16 6.68 0 10.34.1 11.35 6.47h1.28a67.13 67.13 0 0 1 -.64-8.7h-24.95v.77c1.6.17 2 .9 2 3.25v30.15c0 2.35-.43 3.08-2 3.24v.78h25.95c0-.9 1.91-7.85 2.38-9.34zm84.55 8.56c-1.6-.16-2-.9-2-3.24v-29.61c0-2.35.43-3.62 2-3.79v-.77h-10v.77c1.6.17 2 1.44 2 3.79v29.61c0 2.35-.43 3.08-2 3.24v.78h10zm-16.24-37.41h-24.94v.77c1.59.17 2 .9 2 3.25v29.61c0 2.34-.44 3.62-2 3.78v.77h9.94v-.78c-1.56-.17-2-1.46-2-3.78v-14h5c4.51 0 6.58.1 6.95 4.72h1.27c-.16-2-.21-4-.21-6s.05-4.13.21-5.68h-1.22l-.32 1.66c-.48 2.49-1.48 3.39-5.31 3.39h-6.37v-15.32c1.27-.11 2.91-.16 5-.16 6.67 0 10.33.1 11.34 6.47h1.27a68.93 68.93 0 0 1 -.61-8.7z"/><path d="m66.69 65.61c-9.39 10.39-22.14 2.53-35.69 3.03v-44.46c0-3.87.82-4.61 4.17-4.61h1.23v-1.45h-18.26v1.45h1.08c3.35 0 4.17.74 4.17 4.61v45.75a25.45 25.45 0 0 0 -5.25 2.39v1.23c12.86-7.12 35.75 15.68 49.86-7.94z"/></g></svg>