<svg height="37" width="35" xmlns="http://www.w3.org/2000/svg"><path d="m3.358 34.252v-5.788h5.787v5.788zm7.073 0v-5.788h6.431v5.788zm-7.073-7.074v-6.43h5.787v6.43zm7.073 0v-6.43h6.431v6.43zm-7.073-7.717v-5.787h5.787v5.787zm14.79 14.791v-5.788h6.431v5.788zm-7.717-14.791v-5.787h6.431v5.787zm15.434 14.791v-5.788h5.788v5.788zm-7.717-7.074v-6.43h6.431v6.43zm-6.408-17.363c0 .342-.967.643-1.309.643h-1.286c-.341 0-.643-.301-.643-.643v-5.535c0-.594.302-.895.643-.895h1.286c.342 0 1.309.301 1.309.895zm14.125 17.363v-6.43h5.788v6.43zm-7.717-7.717v-5.787h6.431v5.787zm7.717 0v-5.787h5.788v5.787zm.643-9.646c0 .342-.301.643-.643.643h-1.286c-.342 0-.643-.301-.643-.643v-5.535c0-.594.301-.895.643-.895h1.286c.342 0 .643.301.643.895zm7.717-1.286c0-1.406-.635-2.572-2.572-2.572h-1.853v-1.677c0-2.021-2.167-3.468-3.935-3.468h-1.286c-1.769 0-3.215 1.447-3.215 3.468v1.677h-7.717v-1.677c0-2.021-1.447-3.468-3.216-3.468h-1.286c-1.768 0-3.215 1.447-3.215 3.468v1.677h-2.572c-1.407 0-2.573 1.166-2.573 2.572v25.723c0 1.407 1.166 2.572 2.573 2.572h28.295c1.937 0 2.572-1.165 2.572-2.572z" fill="#fff" fill-rule="evenodd"/></svg>