<svg xmlns="http://www.w3.org/2000/svg" width="16" height="14"><path d="M12.57 8.27a.282.282 0 0 0-.29-.28h-.57a.273.273 0 0 0-.28.28v2.86A1.443 1.443 0 0 1 10 12.56H2.57a1.443 1.443 0 0 1-1.43-1.43V3.7a1.443 1.443 0 0 1 1.43-1.43h6.29a.273.273 0 0 0 .28-.28v-.57a.282.282 0 0 0-.28-.29H2.57A2.569 2.569 0 0 0 0 3.7v7.43a2.569 2.569 0 0 0 2.57 2.57H10a2.569 2.569 0 0 0 2.57-2.57V8.27zM16 .56a.576.576 0 0 0-.57-.57h-4.58a.576.576 0 0 0-.57.57.585.585 0 0 0 .17.4l1.57 1.57L6.2 8.35a.358.358 0 0 0-.09.21.308.308 0 0 0 .09.2l1.02 1.02a.358.358 0 0 0 .21.09.308.308 0 0 0 .2-.09l5.82-5.82 1.57 1.57a.566.566 0 0 0 .41.17.576.576 0 0 0 .57-.57V.56z" fill="#fff" fill-rule="evenodd"/></svg>