<svg height="30" preserveAspectRatio="xMinYMid" width="38" xmlns="http://www.w3.org/2000/svg"><path d="m38.01 9.64a12.788 12.788 0 0 1 -2.12 1.85c-3.55 2.39-7.11 4.81-10.57 7.31-1.78 1.32-3.98 2.93-6.29 2.93h-.05c-2.31 0-4.51-1.61-6.3-2.93-3.45-2.52-7.02-4.92-10.54-7.31a12.157 12.157 0 0 1 -2.14-1.85v16.84a3.408 3.408 0 0 0 3.39 3.4h31.22a3.41 3.41 0 0 0 3.4-3.4zm0-6.23a3.423 3.423 0 0 0 -3.4-3.4h-31.22c-2.27 0-3.39 1.78-3.39 3.86 0 1.93 2.14 4.33 3.65 5.35 3.29 2.29 6.62 4.58 9.9 6.89 1.38.95 3.71 2.91 5.43 2.91h.05c1.71 0 4.05-1.96 5.42-2.91 3.29-2.31 6.62-4.6 9.93-6.89 1.87-1.3 3.63-3.44 3.63-5.81z" fill="#fff" fill-rule="evenodd"/></svg>