<svg height="36" preserveAspectRatio="xMinYMid" width="36" xmlns="http://www.w3.org/2000/svg"><path d="m-.01 28.54a1.27 1.27 0 0 1 .08-.54c.18-.53 1.44-1.1 1.95-1.36 1.46-.82 2.95-1.61 4.39-2.46.67-.41 1.49-1.18 2.28-1.18 1.57 0 3.85 4.65 5.24 4.65a5.583 5.583 0 0 0 2.21-1.01 25.491 25.491 0 0 0 10.49-10.49 5.583 5.583 0 0 0 1.01-2.21c0-1.39-4.65-3.67-4.65-5.24 0-.79.77-1.61 1.18-2.28.85-1.44 1.64-2.93 2.46-4.39.26-.51.83-1.77 1.36-1.95a1.27 1.27 0 0 1 .54-.08 11.283 11.283 0 0 1 3.57.8c1.26.54 2.08 1.98 2.72 3.13a9.8 9.8 0 0 1 1.31 4.77c0 2.39-.97 4.55-1.77 6.73a23.97 23.97 0 0 1 -2.13 4.49 43.543 43.543 0 0 1 -12.32 12.32 24.612 24.612 0 0 1 -4.49 2.13c-2.18.79-4.34 1.77-6.73 1.77a9.855 9.855 0 0 1 -4.77-1.31c-1.15-.64-2.59-1.46-3.13-2.72a11.283 11.283 0 0 1 -.8-3.57z" fill="#333" fill-rule="evenodd"/></svg>