<svg xmlns="http://www.w3.org/2000/svg" width="11" height="12"><path d="M6.48 5.59a.381.381 0 0 0-.11-.26L1.17.13A.341.341 0 0 0 .92.02a.381.381 0 0 0-.26.11L.1.69a.35.35 0 0 0 0 .51l4.39 4.39L.1 9.97a.433.433 0 0 0-.11.26.407.407 0 0 0 .11.25l.56.56a.381.381 0 0 0 .26.11.341.341 0 0 0 .25-.11l5.2-5.2a.377.377 0 0 0 .11-.25zm4.29 0a.393.393 0 0 0-.12-.26L5.46.13a.362.362 0 0 0-.52 0l-.55.56a.331.331 0 0 0 0 .51l4.38 4.39-4.38 4.38a.393.393 0 0 0-.12.26.37.37 0 0 0 .12.25l.55.56a.362.362 0 0 0 .52 0l5.19-5.2a.392.392 0 0 0 .12-.25z" fill="#333" fill-rule="evenodd"/></svg>