<svg height="83" preserveAspectRatio="xMinYMid" width="143" xmlns="http://www.w3.org/2000/svg"><g fill="#fff"><path d="m124.38 72.25a7.55 7.55 0 1 0 7.54-7.54 7.55 7.55 0 0 0 -7.54 7.54m.87 0a6.67 6.67 0 1 1 6.67 6.67 6.67 6.67 0 0 1 -6.67-6.67z"/><path d="m135.59 77.13h-1.44l-2.93-4.53h-1.29v4.53h-1.16v-10h2.82a3.4 3.4 0 0 1 2.25.69 2.36 2.36 0 0 1 .82 1.92 2.47 2.47 0 0 1 -.6 1.63 3 3 0 0 1 -1.65 1l3.18 4.77m-5.66-5.53h1.47a2.2 2.2 0 0 0 1.49-.5 1.61 1.61 0 0 0 .57-1.26c0-1.11-.68-1.67-2-1.67h-1.5zm-54.09-26.16c0 10.44 8.22 15.5 14.84 15.5a15 15 0 0 0 14.85-15.5c0-8.11-8-14.59-14.85-18.46-6.81 3.87-14.84 10.35-14.84 18.46zm-60.35.17c0 10.45 8.23 15.51 14.85 15.51s14.85-5.06 14.85-15.51c0-8.11-8-14.58-14.85-18.46-6.82 3.84-14.85 10.35-14.85 18.46z"/><path d="m0 0v78.81h120.76v-78.81zm120.74 19.16c-7.25 0-16.07 1.36-23 4.36 7.46 5 14.68 12.55 14.68 22.09a22.43 22.43 0 0 1 -22.21 22.25 22.12 22.12 0 0 1 -21.86-22.25c0-9.54 6.86-17.1 14.32-22.09a59.23 59.23 0 0 0 -44.61 0c7.46 5 14.32 12.55 14.32 22.09a22.12 22.12 0 0 1 -21.87 22.25c-11.65 0-22.39-9.63-22.39-22.25 0-9.54 7.38-17.1 14.84-22.09-6.91-3-15.71-4.36-23-4.36v-6.9c12.27 0 23.13 3.06 30.51 6.9a64.94 64.94 0 0 1 29.85-6.9 64.94 64.94 0 0 1 29.85 6.9c7.39-3.84 18.26-6.9 30.53-6.9z"/></g></svg>