<svg xmlns="http://www.w3.org/2000/svg" width="15" height="14"><path d="M3.44 12.58v-2.29h8v2.29h-8zm0-5.71V1.15h5.71v1.43a.86.86 0 0 0 .86.86h1.43v3.43h-8zm10.28.57a.57.57 0 1 1-.57-.57.576.576 0 0 1 .57.57zm1.15 0a1.733 1.733 0 0 0-1.72-1.72h-.57V3.44a2.339 2.339 0 0 0-.61-1.46L10.62.62A2.365 2.365 0 0 0 9.15.01h-6a.858.858 0 0 0-.85.86v4.85h-.57A1.733 1.733 0 0 0 .01 7.44v3.71a.3.3 0 0 0 .29.29h2v1.43a.849.849 0 0 0 .85.85h8.57a.851.851 0 0 0 .86-.85v-1.43h2a.3.3 0 0 0 .29-.29V7.44z" fill="#fff" fill-rule="evenodd"/></svg>