<svg height="31" preserveAspectRatio="xMinYMid" width="40" xmlns="http://www.w3.org/2000/svg"><path d="m5.71 26.42a.726.726 0 0 0 -.71-.71h-4.29a.726.726 0 0 0 -.71.71v4.29a.726.726 0 0 0 .71.71h4.29a.726.726 0 0 0 .71-.71zm0-8.57a.735.735 0 0 0 -.71-.72h-4.29a.735.735 0 0 0 -.71.72v4.28a.735.735 0 0 0 .71.72h4.29a.735.735 0 0 0 .71-.72zm0-8.57a.735.735 0 0 0 -.71-.72h-4.29a.735.735 0 0 0 -.71.72v4.28a.735.735 0 0 0 .71.72h4.29a.735.735 0 0 0 .71-.72zm34.29 17.14a.726.726 0 0 0 -.71-.71h-30a.735.735 0 0 0 -.72.71v4.29a.735.735 0 0 0 .72.71h30a.726.726 0 0 0 .71-.71zm-34.29-25.72a.726.726 0 0 0 -.71-.71h-4.29a.726.726 0 0 0 -.71.71v4.29a.726.726 0 0 0 .71.71h4.29a.726.726 0 0 0 .71-.71zm34.29 17.15a.735.735 0 0 0 -.71-.72h-30a.744.744 0 0 0 -.72.72v4.28a.744.744 0 0 0 .72.72h30a.735.735 0 0 0 .71-.72zm0-8.57a.735.735 0 0 0 -.71-.72h-30a.744.744 0 0 0 -.72.72v4.28a.744.744 0 0 0 .72.72h30a.735.735 0 0 0 .71-.72zm0-8.58a.726.726 0 0 0 -.71-.71h-30a.735.735 0 0 0 -.72.71v4.29a.735.735 0 0 0 .72.71h30a.726.726 0 0 0 .71-.71z" fill="#333" fill-rule="evenodd"/></svg>