<svg height="19.97" viewBox="0 0 211.94 19.97" width="211.94" xmlns="http://www.w3.org/2000/svg"><path d="m1870.49 1715.03h-15.19v14.48h15.19v-5.86h-7.85v-2.56h11.08v6.47c0 1.83-.32 3.07-.95 3.73s-1.84.99-3.6.99h-12.55c-1.77 0-2.97-.33-3.6-1s-.95-1.91-.95-3.72v-10.53c0-1.82.32-3.06.95-3.73s1.83-1 3.6-1h12.55c1.74 0 2.93.33 3.58.98s.97 1.82.97 3.52v.49l-3.23.66zm7.84 17.25 9.21-16.4h2.75l9.43 16.4h-3.26l-2.08-3.83h-11l-2.04 3.83zm6.31-6.2h8.46l-4.24-7.8zm19.1 6.2v-16.4h12.81a3.61 3.61 0 0 1 2.56.74 3.253 3.253 0 0 1 .78 2.43v3.67a3.176 3.176 0 0 1 -.78 2.4 3.659 3.659 0 0 1 -2.56.74h-2.11l7.03 6.42h-4.02l-6.35-6.42h-4.35v6.42zm11.49-14h-8.48v5.29h8.48a1.974 1.974 0 0 0 1.36-.34 1.882 1.882 0 0 0 .35-1.32v-1.97a1.4 1.4 0 0 0 -1.71-1.66zm21.19-2.4a19.729 19.729 0 0 1 3.83.31 7.522 7.522 0 0 1 2.56.95 7.23 7.23 0 0 1 2.55 2.89 8.793 8.793 0 0 1 .92 4.01c0 2.76-.82 4.83-2.44 6.19s-4.1 2.05-7.42 2.05h-9.17v-16.4zm-.33 2.43h-5.83v11.5h5.83c2.6 0 4.44-.45 5.54-1.35s1.64-2.39 1.64-4.46a5.281 5.281 0 0 0 -1.66-4.35q-1.665-1.335-5.52-1.34zm16.57 13.97v-16.4h16.04v2.43h-13.03v4.22h7.86v2.44h-7.86v4.91h13.18v2.4zm23.64-13.12c.07.48.12.97.16 1.46s.06.98.06 1.48v10.18h-2.77v-16.4h2.29l11.69 10.72a9.29 9.29 0 0 1 .98 1 13.339 13.339 0 0 1 .93 1.24 14.815 14.815 0 0 1 -.2-1.49c-.04-.5-.06-1.03-.06-1.57v-9.9h2.77v16.4h-2.06l-11.92-10.87a13.763 13.763 0 0 1 -1.08-1.14 9.027 9.027 0 0 1 -.79-1.11zm35.99 4.53h-6.88v2.62h6.29a1.932 1.932 0 0 1 2.38 2.38v1.21a1.925 1.925 0 0 1 -2.38 2.38h-5.96a2.729 2.729 0 0 1 -1.9-.49 2.645 2.645 0 0 1 -.5-1.89v-.28l1.69-.36v1.5h7.39v-2.84h-6.31a1.932 1.932 0 0 1 -2.38-2.38v-.95a2.694 2.694 0 0 1 .5-1.89 2.628 2.628 0 0 1 1.88-.51h5.45a2.768 2.768 0 0 1 1.89.49 2.34 2.34 0 0 1 .52 1.72v.25l-1.68.37zm10.32 0v8.59h-1.84v-8.59h-4.62v-1.5h11.11v1.5zm10.29 8.59v-4.4l-5.11-5.69h2.25l3.9 4.37 3.73-4.37h2.17l-5.1 5.69v4.4zm9.25 0v-10.09h1.85v8.57h7.62v1.52zm11.91 0v-10.09h9.86v1.5h-8.01v2.59h4.83v1.51h-4.83v3.02h8.1v1.47z" fill="#73b1a7" fill-rule="evenodd" transform="translate(-1852.06 -1712.31)"/></svg>