<svg height="32" viewBox="0 0 138.53 32" width="138.53" xmlns="http://www.w3.org/2000/svg"><path d="m1455.09 1707.68c0 .85-.73 2.28-2.19 4.27l-8.7 11.87c-.31.41-.8 1.18-1.48 2.32-.4.66-.95 1.73-1.65 3.2h-3.88a11.435 11.435 0 0 1 .65-1.46 51.407 51.407 0 0 1 2.94-4.24l3.67-4.92h-6.86l-4.46 4.85a32.9 32.9 0 0 1 -5.32 4.67 11.379 11.379 0 0 1 -6.15 2.07 5.59 5.59 0 0 1 -4.11-1.55 5.486 5.486 0 0 1 -1.57-4.08 11.237 11.237 0 0 1 3.63-7.95q4.02-4.1 8.27-4.1a4.342 4.342 0 0 1 2.91 1 3.316 3.316 0 0 1 1.19 2.67 4.556 4.556 0 0 1 -.69 2.42c-.95 1.62-1.82 2.44-2.58 2.46l-.08-.07a10.487 10.487 0 0 1 .81-1.15 4.285 4.285 0 0 0 .74-2.62 3.143 3.143 0 0 0 -1.11-2.45 3.883 3.883 0 0 0 -2.63-.98 7.783 7.783 0 0 0 -5.82 2.8 8.718 8.718 0 0 0 -2.59 6.01 4.7 4.7 0 0 0 1.24 3.44 4.558 4.558 0 0 0 3.4 1.26 10.284 10.284 0 0 0 5.25-1.63 32.119 32.119 0 0 0 4.38-3.37 45.85 45.85 0 0 0 3.74-3.7h-2.41l.4-.64h2.69l2.63-2.61q3.45-3.42 4.74-4.61a28.4 28.4 0 0 1 5.28-3.93 7.424 7.424 0 0 1 3.49-1.03c1.49 0 2.23.59 2.23 1.78zm-2.73-.07a.789.789 0 0 0 -.97-.79q-3.63 0-13.19 11.26h6.72l5.86-7.84a7.735 7.735 0 0 0 1.58-2.63zm6.47 14.79c0 .42-1.15 1.83-3.45 4.2q-3.015 3.135-5.07 3.14c-1.61 0-2.41-.68-2.41-2.03a5.926 5.926 0 0 1 1.26-3l3.63-5.38a2.8 2.8 0 0 0 .61-1.28 5.67 5.67 0 0 0 -.11-.57h3.49a3.157 3.157 0 0 1 .03.5 3.766 3.766 0 0 1 -.71 1.39l-4.21 6.23a4.519 4.519 0 0 0 -.94 2.25c0 .52.2.78.58.78.96 0 2.92-1.59 5.9-4.77a4.776 4.776 0 0 0 .82-1.14.749.749 0 0 1 .43-.47.133.133 0 0 1 .15.15zm2.66-13.47a2.838 2.838 0 0 1 -.94 1.96 2.717 2.717 0 0 1 -1.94.96 1.254 1.254 0 0 1 -1.4-1.43 2.407 2.407 0 0 1 1.03-1.8 3.1 3.1 0 0 1 1.99-.87 1.078 1.078 0 0 1 1.26 1.18zm8.41 13.43a13.365 13.365 0 0 1 -2.23 2.85 31.315 31.315 0 0 1 -2.62 2.74 5.222 5.222 0 0 1 -3.28 1.57 2.475 2.475 0 0 1 -1.58-.51 1.72 1.72 0 0 1 -.64-1.41q0-1.785 3.01-5.17a20.976 20.976 0 0 1 3.38-3.03 5.168 5.168 0 0 1 -1.65.32 2.74 2.74 0 0 1 -1.37-.42c-.5.54-1.33 1.6-2.48 3.17a.5.5 0 0 1 -.32.32.159.159 0 0 1 -.18-.18c.24-.38.52-.8.83-1.25q.9-1.275 2.62-4.17a3.517 3.517 0 0 0 2.23.79 27.407 27.407 0 0 0 3.41-.68c-4.16 4.78-6.25 7.86-6.25 9.27 0 .8.3 1.21.9 1.21q1.155 0 3.66-2.78a23.428 23.428 0 0 0 1.98-2.35.749.749 0 0 1 .43-.47.147.147 0 0 1 .15.18zm15.24-4.81a5.617 5.617 0 0 1 -1.19 2.64l-8.08 11.86a12.754 12.754 0 0 1 -10.68 5.85 6.539 6.539 0 0 1 -2.37-.39 1.856 1.856 0 0 1 -1.41-1.68 1.259 1.259 0 0 1 .42-.96 1.428 1.428 0 0 1 1.02-.39.757.757 0 0 1 .94.75.648.648 0 0 1 -.25.4.829.829 0 0 0 -.26.63 1.079 1.079 0 0 0 .69.96 2.769 2.769 0 0 0 1.25.29 6.262 6.262 0 0 0 4.07-1.64 28.56 28.56 0 0 0 3.02-3.35c.21-.26.51-.66.9-1.18l3.81-5.56q-3.75 3.81-6.15 3.81a1.783 1.783 0 0 1 -2.05-1.99q0-1.35 2.01-4.35l2.48-3.67c.22-.33.44-.66.68-1a2.237 2.237 0 0 0 .26-1.1h3.41a5.328 5.328 0 0 1 -.93 2.03l-2.82 4.2c-1.31 1.95-1.96 3.22-1.96 3.82a.662.662 0 0 0 .78.71q1.47 0 4.2-2.92c.28-.31.7-.8 1.25-1.46l2.72-4.03a4.782 4.782 0 0 0 .97-1.96v-.39h3.27zm18.11-.46a19.564 19.564 0 0 0 -.39 3.42v2.31a6.457 6.457 0 0 1 -2.04 4.92 7.122 7.122 0 0 1 -5.05 1.93c-1.94 0-2.9-.35-2.9-1.04a1.611 1.611 0 0 1 .39-.94 1.068 1.068 0 0 1 .83-.52c.07 0 .1.07.1.22a1.989 1.989 0 0 1 -.07.44 2.755 2.755 0 0 0 -.07.48.842.842 0 0 0 .34.64 1.1 1.1 0 0 0 .7.29c1.35 0 2.53-.99 3.56-2.96a11.733 11.733 0 0 0 1.4-5.56c0-.85-.03-1.69-.1-2.49-1.75 2.9-2.8 4.34-3.13 4.34a.093.093 0 0 1 -.11-.1 2.672 2.672 0 0 1 .43-.72q.18-.285.72-.99a16.372 16.372 0 0 0 1.8-3.21 15.3 15.3 0 0 0 3.59-.46zm15.49.39-.31.53h-3.89l-4.9 7.07c-.27.36-.54.72-.81 1.1a2.267 2.267 0 0 0 -.47 1.24.986.986 0 0 0 1.04 1.18 3.742 3.742 0 0 0 2.28-1.21 42.561 42.561 0 0 0 3.39-3.51 11.087 11.087 0 0 0 .87-1.1.709.709 0 0 1 .47-.49.174.174 0 0 1 .18.21v.07a.1.1 0 0 0 -.04.08c-.24.35-.62.86-1.15 1.53-.09.12-.43.48-1 1.1q-4.35 4.665-6.33 4.67a3.041 3.041 0 0 1 -1.98-.61 2.224 2.224 0 0 1 -.86-1.85 6 6 0 0 1 1.26-2.67l4.6-6.81h-2.16l.22-.53h2.37l2.34-3.46a3.187 3.187 0 0 0 .68-1.64h3.2a.672.672 0 0 0 .03.18v.21a3.54 3.54 0 0 1 -.71 1.5l-2.16 3.21zm13.02.07a5.617 5.617 0 0 1 -1.19 2.64l-8.09 11.86a12.747 12.747 0 0 1 -5.6 4.78 12.934 12.934 0 0 1 -5.07 1.07 6.539 6.539 0 0 1 -2.37-.39 1.856 1.856 0 0 1 -1.41-1.68 1.259 1.259 0 0 1 .42-.96 1.411 1.411 0 0 1 1.02-.39.757.757 0 0 1 .94.75.628.628 0 0 1 -.26.4.859.859 0 0 0 -.25.63 1.084 1.084 0 0 0 .68.96 2.843 2.843 0 0 0 1.26.29 6.262 6.262 0 0 0 4.07-1.64 27.821 27.821 0 0 0 3.01-3.35c.22-.26.52-.66.9-1.18l3.81-5.56q-3.735 3.81-6.14 3.81a1.783 1.783 0 0 1 -2.05-1.99q0-1.35 2.01-4.35l2.48-3.67c.22-.33.44-.66.68-1a2.237 2.237 0 0 0 .26-1.1h3.41a5.328 5.328 0 0 1 -.93 2.03l-2.82 4.2c-1.31 1.95-1.96 3.22-1.96 3.82a.662.662 0 0 0 .78.71q1.47 0 4.19-2.92c.29-.31.71-.8 1.26-1.46l2.72-4.03a4.782 4.782 0 0 0 .97-1.96v-.39h3.27zm14.16-8.84a2.819 2.819 0 0 1 -.62 1.46l-10.27 15.04a4.837 4.837 0 0 0 -1.05 2.46.683.683 0 0 0 .76.78c.75 0 1.94-.78 3.58-2.35a16.459 16.459 0 0 0 2.96-3.38.721.721 0 0 1 .5-.47c.1 0 .15.04.15.11q0 .78-3.49 4.17-3.3 3.21-5.28 3.21a2.469 2.469 0 0 1 -1.66-.56 1.909 1.909 0 0 1 -.64-1.55 6.325 6.325 0 0 1 1.36-3.27l10-14.65a2.149 2.149 0 0 0 .43-.96l-.11-.54h3.31a2.589 2.589 0 0 1 .07.5zm8.59 13.72a7.932 7.932 0 0 1 -1.08 1.61c-.24.3-.59.71-1.04 1.21a21.682 21.682 0 0 1 -3.31 3.06 7.3 7.3 0 0 1 -4.24 1.39q-3.525 0-3.52-3.1 0-2.6 2.87-5.49a15.54 15.54 0 0 1 3.71-2.71 9.564 9.564 0 0 1 4.34-1.21c1.39 0 2.09.45 2.09 1.36s-.67 1.81-2.01 2.74a15.264 15.264 0 0 1 -3.2 1.64 21.9 21.9 0 0 1 -3.63 1.03 7.113 7.113 0 0 0 -1.19 3.18q0 1.56 1.83 1.56c1.85 0 3.81-1.21 5.9-3.63a24.234 24.234 0 0 0 1.87-2.32.559.559 0 0 1 .46-.46.13.13 0 0 1 .15.14zm-1.87-4.1a.648.648 0 0 0 -.79-.67q-.825 0-2.52 1.56a21.585 21.585 0 0 0 -3.63 4.25c.31-.05.76-.15 1.33-.29a9.507 9.507 0 0 0 3.6-1.82q2.01-1.605 2.01-3.03z" fill="#6e86a1" fill-rule="evenodd" transform="translate(-1415.97 -1705.91)"/></svg>