<svg height="31.97" viewBox="0 0 186.59 31.97" width="186.59" xmlns="http://www.w3.org/2000/svg"><path d="m1863.49 2016.86c-.79-1.85-1.3-2.55-2.77-2.72l-.61-.06a.547.547 0 0 1 .06-.83c.99.06 2.09.1 3.56.1 1.5 0 2.69-.04 4.13-.1a.576.576 0 0 1 .07.83l-.52.06c-1.29.17-1.57.37-1.6.63a41.04 41.04 0 0 0 1.71 4.65c1.57 3.85 3.14 7.66 4.84 11.45 1.06-2.19 2.5-5.61 3.28-7.37.99-2.26 2.6-6.01 3.18-7.43a3.54 3.54 0 0 0 .31-1.3c0-.23-.35-.49-1.54-.63l-.61-.06a.56.56 0 0 1 .06-.83c.96.06 2.26.1 3.55.1 1.13 0 2.19-.04 3.32-.1a.626.626 0 0 1 .06.83l-1.02.06a2.221 2.221 0 0 0 -1.78 1.16 81.393 81.393 0 0 0 -3.82 7.64l-1.84 4.08c-1.37 3.05-2.97 6.9-3.56 8.66a.641.641 0 0 1 -.37.1 1.323 1.323 0 0 1 -.51-.1 38.8 38.8 0 0 0 -1.57-4.41zm25.77 11.52a.809.809 0 0 0 .58-.96l.03-1.53c.04-1.23-.37-2.89-2.49-2.89-.95 0-2.11.47-2.18 1.5a1.471 1.471 0 0 1 -.34 1.12 3.787 3.787 0 0 1 -1.95.64.43.43 0 0 1 -.48-.47c0-1.73 3.86-4.08 6.35-4.08 2.46 0 3.66 1.39 3.55 3.88l-.2 5.78c-.07 1.52.24 2.88 1.57 2.88a1.97 1.97 0 0 0 .85-.2 1.462 1.462 0 0 1 .45-.23.388.388 0 0 1 .24.43 3.6 3.6 0 0 1 -2.87 1.46 2.757 2.757 0 0 1 -2.22-1.03.9.9 0 0 0 -.55-.46 5.365 5.365 0 0 0 -1.33.66 5.118 5.118 0 0 1 -2.46.83 3.586 3.586 0 0 1 -2.39-.76 3.05 3.05 0 0 1 -1.06-2.32c0-1.3.65-2.06 2.84-2.82zm-2.12 5.84a3.966 3.966 0 0 0 2.09-.83 2.029 2.029 0 0 0 .44-1.56l.07-1.96c0-.36-.14-.43-.34-.43a6.379 6.379 0 0 0 -1.4.33c-2.02.67-3.01 1.16-3.01 2.46a2.028 2.028 0 0 0 2.15 1.99zm12.19-8.5c0-1.29 0-1.46-.92-2.05l-.31-.2a.444.444 0 0 1 .03-.6 26.628 26.628 0 0 0 3.45-1.63.275.275 0 0 1 .28.24v1.92a.3.3 0 0 0 .1.3c1.19-.96 2.49-1.99 3.76-1.99a1.4 1.4 0 0 1 1.53 1.33 1.49 1.49 0 0 1 -1.47 1.52 1.36 1.36 0 0 1 -.75-.23 2.846 2.846 0 0 0 -1.5-.53 1.527 1.527 0 0 0 -1.23.66 4.974 4.974 0 0 0 -.44 2.56v4.51c0 2.39.07 2.79 1.36 2.89l1.23.1a.569.569 0 0 1 -.07.83c-1.6-.07-2.59-.1-3.79-.1-1.23 0-2.25.03-3.14.1a.569.569 0 0 1 -.07-.83l.65-.1c1.26-.2 1.3-.5 1.3-2.89zm12.35 0c0-1.29 0-1.46-.92-2.05l-.3-.2a.444.444 0 0 1 .03-.6 24.063 24.063 0 0 0 3.52-1.63.315.315 0 0 1 .34.2c-.07 1.16-.14 2.76-.14 4.12v5.97c0 2.39.07 2.72 1.3 2.89l.72.1a.569.569 0 0 1 -.07.83c-1.03-.07-2.02-.1-3.21-.1-1.23 0-2.26.03-3.21.1a.569.569 0 0 1 -.07-.83l.72-.1c1.26-.17 1.29-.5 1.29-2.89zm2.84-9.45a1.777 1.777 0 0 1 -3.55.06 1.751 1.751 0 0 1 1.84-1.79 1.682 1.682 0 0 1 1.71 1.73zm11.71 12.11a.809.809 0 0 0 .58-.96l.03-1.53c.04-1.23-.37-2.89-2.49-2.89-.96 0-2.12.47-2.19 1.5a1.4 1.4 0 0 1 -.34 1.12 3.726 3.726 0 0 1 -1.94.64.43.43 0 0 1 -.48-.47c0-1.73 3.86-4.08 6.35-4.08 2.46 0 3.65 1.39 3.55 3.88l-.2 5.78c-.07 1.52.24 2.88 1.57 2.88a1.97 1.97 0 0 0 .85-.2 1.434 1.434 0 0 1 .44-.23.378.378 0 0 1 .24.43 3.575 3.575 0 0 1 -2.86 1.46 2.757 2.757 0 0 1 -2.22-1.03.923.923 0 0 0 -.55-.46 5.365 5.365 0 0 0 -1.33.66 5.118 5.118 0 0 1 -2.46.83 3.586 3.586 0 0 1 -2.39-.76 3.05 3.05 0 0 1 -1.06-2.32c0-1.3.65-2.06 2.83-2.82zm-2.12 5.84a3.931 3.931 0 0 0 2.08-.83 2.072 2.072 0 0 0 .45-1.56l.07-1.96c0-.36-.14-.43-.35-.43a6.641 6.641 0 0 0 -1.4.33c-2.01.67-3 1.16-3 2.46a2.028 2.028 0 0 0 2.15 1.99zm11.4-17.69c0-1.96-.03-2.16-1.06-2.75l-.34-.2a.5.5 0 0 1 0-.67 30.9 30.9 0 0 0 3.72-1.39.368.368 0 0 1 .34.2c-.06 1.16-.13 2.65-.13 4.11v6.28c0 .56.13.69.34.69a8.136 8.136 0 0 1 3.93-1.09 6.3 6.3 0 0 1 6.52 6.5c0 4.42-3.28 7.5-7.86 7.5a9.986 9.986 0 0 1 -2.9-.43 7.705 7.705 0 0 0 -1.43-.43 1.064 1.064 0 0 0 -.72.5.183.183 0 0 1 -.14.03.391.391 0 0 1 -.34-.2c.04-.46.07-1.09.07-2.82zm2.53 14.2a4.479 4.479 0 0 0 .85 2.89 3.286 3.286 0 0 0 2.6 1.1c3.21 0 4.47-2.66 4.47-5.51 0-3.42-1.81-6.07-5.19-6.07a4.531 4.531 0 0 0 -2.32.53c-.34.23-.41.59-.41 1.89zm18.53.8c0 2.39.07 2.72 1.3 2.89l.82.1a.569.569 0 0 1 -.07.83c-1.12-.07-2.12-.1-3.31-.1-1.23 0-2.25.03-3.28.1a.569.569 0 0 1 -.07-.83l.79-.1c1.26-.17 1.3-.5 1.3-2.89v-15c0-1.96-.04-2.16-1.06-2.75l-.34-.2a.5.5 0 0 1 0-.67 24.645 24.645 0 0 0 3.69-1.39.391.391 0 0 1 .34.2c-.04.99-.11 2.65-.11 4.11zm8.37-4.78c-.89 0-.93.07-.93.9 0 3.35 2.02 6.2 5.67 6.2a3.7 3.7 0 0 0 3.14-1.62.451.451 0 0 1 .62.4 6.015 6.015 0 0 1 -5.36 3.08 6.19 6.19 0 0 1 -4.95-2.19 6.866 6.866 0 0 1 -1.44-4.31c0-4.08 2.77-7.5 6.87-7.5 2.93 0 4.85 1.96 4.85 3.95a1.947 1.947 0 0 1 -.14.86c-.1.2-.58.23-2.02.23zm2.11-.99c2.53 0 3.28-.14 3.55-.34a.62.62 0 0 0 .21-.63c0-.92-.65-2.09-2.63-2.09-2.01 0-3.76 1.8-3.79 2.89 0 .07 0 .17.24.17zm26.9-3.45a7.487 7.487 0 0 1 .55 2.68.6.6 0 0 1 -.82.1 3.313 3.313 0 0 0 -3.01-2.42 1.988 1.988 0 0 0 -2.18 2.02c0 1.37 1.43 2.1 2.63 2.76 1.81.99 3.48 2.12 3.48 4.48 0 2.52-2.39 3.78-4.92 3.78a5.813 5.813 0 0 1 -3.65-.99 9.412 9.412 0 0 1 -.41-3.35.584.584 0 0 1 .78-.04c.59 1.83 1.68 3.42 3.62 3.42a2.081 2.081 0 0 0 2.29-2.12c0-1.53-1.36-2.36-2.63-3.06-1.98-1.09-3.38-2.25-3.38-4.08 0-2.42 2.05-3.78 4.65-3.78a6.121 6.121 0 0 1 3 .6zm8.84 1.26c-.58 0-.61.1-.61.79v6.21c0 1.92.24 3.68 2.49 3.68a2.646 2.646 0 0 0 .92-.16c.31-.1.75-.47.86-.47a.446.446 0 0 1 .34.57 4.833 4.833 0 0 1 -3.59 1.52c-2.93 0-3.55-1.59-3.55-3.58v-7.6c0-.9-.03-.96-.72-.96h-.95a.536.536 0 0 1 -.1-.7 6.8 6.8 0 0 0 2.18-1.03 8.2 8.2 0 0 0 1.43-1.96.68.68 0 0 1 .72.17v1.49c0 .6.04.63.61.63h3.8a1.043 1.043 0 0 1 .03 1.4zm6.18 18.51a1.248 1.248 0 0 1 1.36-1.32h.65a1.261 1.261 0 0 0 1.13-.6 21.223 21.223 0 0 0 1.98-3.68 5.091 5.091 0 0 0 .34-1.43 6.061 6.061 0 0 0 -.58-2.29l-2.66-7.1c-.58-1.56-.82-2.36-2.02-2.59l-.85-.17a.572.572 0 0 1 .1-.83c1.09.07 2.12.1 3.24.1.93 0 1.88-.03 2.98-.1a.546.546 0 0 1 .06.83l-.85.17c-.48.1-.75.2-.75.43a23.5 23.5 0 0 0 .99 3.12l1.09 3.05a20.605 20.605 0 0 0 .99 2.36 15.891 15.891 0 0 0 1.27-2.46l1.16-2.62a14.871 14.871 0 0 0 1.19-3.32c0-.23-.2-.46-.82-.56l-1.06-.17a.554.554 0 0 1 .07-.83c1.1.07 2.12.1 3.01.1.85 0 1.64-.03 2.59-.1a.54.54 0 0 1 .07.83l-.58.1c-1.13.2-1.74 1.16-2.9 3.52l-1.92 3.82c-1.12 2.22-3.92 7.99-5.59 11.61a2.281 2.281 0 0 1 -2.19 1.56 1.354 1.354 0 0 1 -1.5-1.43zm20.68-10.55c0 2.39.07 2.72 1.3 2.89l.82.1a.569.569 0 0 1 -.07.83c-1.12-.07-2.12-.1-3.31-.1-1.23 0-2.25.03-3.28.1a.569.569 0 0 1 -.07-.83l.79-.1c1.26-.17 1.3-.5 1.3-2.89v-15c0-1.96-.04-2.16-1.06-2.75l-.34-.2a.5.5 0 0 1 0-.67 24.645 24.645 0 0 0 3.69-1.39.391.391 0 0 1 .34.2c-.04.99-.11 2.65-.11 4.11zm8.37-4.78c-.89 0-.93.07-.93.9 0 3.35 2.02 6.2 5.67 6.2a3.7 3.7 0 0 0 3.14-1.62.451.451 0 0 1 .62.4 6.015 6.015 0 0 1 -5.36 3.08 6.19 6.19 0 0 1 -4.95-2.19 6.866 6.866 0 0 1 -1.44-4.31c0-4.08 2.77-7.5 6.87-7.5 2.93 0 4.85 1.96 4.85 3.95a1.947 1.947 0 0 1 -.14.86c-.1.2-.58.23-2.02.23zm2.11-.99c2.53 0 3.28-.14 3.55-.34a.62.62 0 0 0 .21-.63c0-.92-.65-2.09-2.63-2.09-2.01 0-3.76 1.8-3.79 2.89 0 .07 0 .17.24.17z" fill="#d7a974" fill-rule="evenodd" transform="translate(-1859.94 -2011.53)"/></svg>