<svg height="32" viewBox="0 0 149.56 32" width="149.56" xmlns="http://www.w3.org/2000/svg"><path d="m1421.65 2013.19h4.09c3.31 0 5.93.53 8.42 2.78a11.177 11.177 0 0 1 .12 16.34c-2.49 2.34-5.17 2.92-8.54 2.92h-4.09zm4.06 20.73c2.98 0 5.44-.59 7.61-2.66a9.762 9.762 0 0 0 -.27-14.35c-2.17-1.9-4.51-2.4-7.34-2.4h-2.62v19.41zm30.41-5.44a7.268 7.268 0 1 1 -7.31-7.04 7.077 7.077 0 0 1 7.31 7.04zm-13.18.03a5.91 5.91 0 1 0 5.78-5.85 5.81 5.81 0 0 0 -5.78 5.85zm19.61-5.09h.06a3.843 3.843 0 0 1 3.49-1.98 4.107 4.107 0 0 1 3.91 2.45 4.281 4.281 0 0 1 4.06-2.45c3.58 0 4.3 2.36 4.3 5.32v8.47h-1.35v-8.65c0-2.07-.34-3.92-2.98-3.92-2.89 0-3.58 2.46-3.58 4.8v7.77h-1.36v-8.33c0-2.1-.39-4.24-3.1-4.24-2.91 0-3.45 2.96-3.45 5.15v7.42h-1.36v-13.5h1.36zm34.46 11.81h-1.35v-2.42h-.06a6.3 6.3 0 0 1 -5.3 2.72c-4.21 0-6.86-3.19-6.86-7.14s2.62-6.95 6.8-6.95a6.461 6.461 0 0 1 5.36 2.63h.06v-2.34h1.35zm-12.21-6.84c0 3.1 2.1 5.91 5.47 5.91 3.55 0 5.48-2.81 5.48-6.05a5.377 5.377 0 0 0 -5.57-5.59 5.573 5.573 0 0 0 -5.38 5.73zm35.6-4.2a2.642 2.642 0 0 0 -2.43-1.53 2.351 2.351 0 0 0 -2.38 2.11c0 3.24 6.77 1.67 6.77 6.55a4.239 4.239 0 0 1 -4.48 4.21 4.779 4.779 0 0 1 -4.79-3.57l1.33-.41a3.51 3.51 0 0 0 3.46 2.75 3.072 3.072 0 0 0 3.13-3.04c0-1.67-1.33-2.19-2.71-2.66-1.9-.67-4.06-1.46-4.06-3.74a3.56 3.56 0 0 1 3.79-3.42 4.137 4.137 0 0 1 3.55 2.16zm8.75 11.04h-1.35v-12.27h-1.54v-1.23h1.54v-4.82h1.35v4.82h2.44v1.23h-2.44zm4.06-13.5h1.41l5.93 12.22 5.33-12.22h1.38l-9.33 21.4h-1.38l3.34-7.66zm19.52 13.5h-1.36v-24.11h1.36zm6.43-6.63a5.342 5.342 0 0 0 5.57 5.7 5.576 5.576 0 0 0 4.9-3.07l1.14.64a6.8 6.8 0 0 1 -6.22 3.66c-4.12 0-6.74-3.25-6.74-7.08a6.729 6.729 0 0 1 6.74-7.01c4.21 0 6.71 3.27 6.68 7.16zm10.71-1.23a5.4 5.4 0 0 0 -10.71 0z" fill="#758d87" fill-rule="evenodd" transform="translate(-1421.66 -2011.12)"/></svg>