<?xml version="1.0" encoding="UTF-8"?><svg id="_レイヤー_4" xmlns="http://www.w3.org/2000/svg" viewBox="0 0 188.26 52.11"><defs><style>.cls-1{fill: #ac6c35;}
</style></defs><g><path class="cls-1" d="M66.2,50.76c1.89-1.73,2.44-3.28,2.44-3.59,0-.26-.27-.43-.54-.55,.08-.06,.14-.11,.39-.11,.63,0,1.18,.52,1.18,.74,0,.06-.08,.13-.19,.26-.03,.03-.55,.92-.66,1.09-.32,.5-1.2,1.73-2.59,2.24l-.03-.07Zm7.15-.93c0,.1,0,.63-.42,.63-.27,0-.34-.29-.38-.49-.27-1.26-.94-2.41-1.87-3.31,1.54,.68,2.67,2.09,2.67,3.17Zm-1.68-3.84c.43,0,1.28,.21,1.28,.71,0,.17-.13,.29-.23,.29-.14,0-.18-.04-.52-.41-.21-.22-.5-.44-.78-.56,.09-.02,.15-.03,.25-.03Zm.64-.74c.13,0,1.3,.05,1.3,.64,0,.18-.18,.25-.27,.25-.1,0-.12-.02-.33-.2-.15-.14-.62-.46-1.04-.65,.1-.02,.19-.04,.35-.04Z"/><path class="cls-1" d="M76.8,46.34c-.08,.17-.14,.34-.14,.96,0,.21,.03,1.15,.03,1.35,0,.13,0,.7-.32,.7-.16,0-.47-.26-.47-.73,0-.08,.04-.38,.06-.54,.03-.27,.04-.86,.04-1.29,0-.62,0-.79-.72-.96,.14-.09,.34-.21,.54-.21,.24,0,1.04,.27,1.04,.51,0,.04,0,.08-.07,.2Zm2.9-.03c-.04,.33-.02,.87-.03,1.2-.03,1.58-.15,2.66-1.04,3.62-.3,.32-.89,.84-1.63,.92l-.03-.06c1.13-.62,1.67-1.86,1.82-2.57,.19-.95,.19-2.3,.19-2.56,0-1.19-.04-1.21-.83-1.38,.13-.1,.31-.25,.65-.25,.43,0,1.05,.26,1.05,.46,0,.09-.15,.52-.15,.62Z"/><path class="cls-1" d="M87.47,46.91c-.07,.02-.17,.05-.26,.1-.62,.39-.73,.46-1.77,1.09-.56,2.14-1,3.21-2.41,3.92l-.03-.05c1.43-1.55,1.71-3.79,1.71-4,0-.32-.13-.37-.62-.54,.19-.09,.33-.16,.51-.16,.23,0,.76,.15,.85,.34,.04,.09,.03,.15,.03,.19,.85-.75,1.2-1.23,1.2-1.36,0-.04,0-.06-.09-.06-.05,0-2.61,.22-3.43,.55-.07,.03-.36,.16-.42,.16-.1,0-.41-.22-.49-.28-.33-.29-.34-.34-.34-.56,0-.24,.03-.34,.07-.44,.23,.37,.54,.49,.87,.49,.36,0,3.25-.33,3.9-.43,.07-.02,.35-.12,.41-.12,.17,0,.9,.73,.9,.89,0,.14-.03,.14-.59,.26Z"/><path class="cls-1" d="M95.15,47.19c-.09,.05-.09,.08-.2,.35-.72,1.91-1.5,2.67-1.91,3.04-.64,.57-1.64,1.19-2.4,1.29v-.05c.93-.52,2-1.56,2.47-2.2,.44-.62,1.08-1.85,1.32-2.83-1.34,.08-3.2,.35-3.59,.57-.17,.1-.21,.1-.25,.1-.09,0-.77-.41-.77-1.03,0-.2,.06-.32,.11-.42,.05,.09,.15,.26,.43,.49,.14,.1,.25,.15,.47,.15,.03,0,1.63-.15,1.94-.16,.42-.02,1.46-.08,1.75-.32,.12-.09,.13-.1,.19-.1,.14,0,.73,.72,.74,.76,0,.02,.02,.05,.02,.08,0,.09-.03,.12-.32,.3Zm.87-.56c-.16,0-.23-.09-.5-.44-.04-.06-.38-.5-.79-.79,.61,.03,1.53,.3,1.53,.91,0,.19-.11,.32-.25,.32Zm.65-.58c-.11,0-.15-.04-.44-.38-.07-.08-.45-.49-.87-.73,.46-.04,1.54,.14,1.54,.77,0,.13-.07,.34-.23,.34Z"/><path class="cls-1" d="M100.42,47.13c-.15,1.35-.16,1.5-.26,1.88-.33,1.18-1.21,2.03-1.94,2.33l-.05-.05c1.35-1.37,1.54-2.79,1.54-4.03,0-.39-.03-.54-.16-.64-.05-.04-.46-.16-.54-.19,.08-.03,.43-.18,.5-.2,.05-.03,.11-.03,.15-.03,.17,0,.88,.16,.88,.44,0,.08-.1,.41-.11,.49Zm1.96,3.49c-.11,.09-.38,.3-.62,.54-.03,.03-.06,.05-.09,.05-.13,0-.59-.73-.59-.9,0-.07,.13-.33,.14-.39,.03-.15,.08-.6,.08-1.5,0-.23-.02-2.06-.03-2.17-.04-.2-.31-.3-.68-.41,.16-.09,.35-.21,.58-.21,.27,0,.98,.21,.98,.51,0,.08-.11,.42-.13,.5-.06,.34-.15,2.76-.15,3.19,0,.09,.03,.14,.08,.14,.23,0,1.63-.96,3.03-2.56l.06,.07c-.77,1.68-2.01,2.64-2.66,3.14Z"/><path class="cls-1" d="M112.22,51.52c-.23,0-.36-.22-.44-.36-.66-1.09-1.05-1.64-1.73-2.18-1.31,1.56-2.61,2.38-3.81,2.6v-.07c2.04-.95,4.15-3.81,4.43-5.02-.03,0-1.74,.32-2.19,.54-.25,.13-.28,.14-.35,.14-.13,0-.67-.39-.67-.94,0-.22,.03-.28,.08-.38,.35,.45,.42,.55,.7,.55,.21,0,2.08-.16,2.43-.38,.06-.04,.33-.27,.4-.27,.11,0,.78,.63,.78,.77,0,.09-.06,.12-.33,.22-.08,.03-.11,.09-.24,.33-.56,1.03-.66,1.2-1.1,1.77,1.04,.44,2.38,1.46,2.38,2.23,0,.21-.08,.47-.33,.47Z"/><path class="cls-1" d="M119.88,47.02c-.19,.08-.2,.08-.54,.69-1.42,2.5-2.23,3.01-2.89,3.42-.75,.48-1.39,.63-1.67,.7l-.02-.06c1.21-.63,2.13-1.54,2.88-2.54-.14-.04-.28-.22-.31-.25-.61-.72-.65-.77-1.03-.99-.38,.4-.87,.83-1.46,1.09l-.02-.05c.93-.92,2.06-2.78,2.06-3.13,0-.28-.3-.38-.51-.46,.12-.07,.25-.15,.46-.15,.49,0,1.04,.4,1.04,.62,0,.08-.03,.1-.21,.29-.09,.09-.16,.21-.22,.29,.38,.03,1.28-.09,1.5-.16,.07-.03,.38-.24,.45-.24,.09,0,.71,.61,.71,.75,0,.09-.03,.09-.24,.17Zm-2.16-.03c-.08,0-.16,0-.46-.21-.48,.67-.82,1.07-.85,1.09,.39,.03,1.46,.17,1.56,.91,.66-1.03,.89-1.69,.99-2-1.02,.19-1.13,.21-1.25,.21Z"/><path class="cls-1" d="M126.49,46.14c-.24,.17-.34,.28-.55,.51-.14,.14-.73,.81-.85,.95,.15,.08,.44,.29,.44,.41,0,.06-.09,.3-.09,.35,0,.07-.03,.52-.03,1.07,0,.33,.06,1.8,.06,2.09,0,.21-.08,.59-.33,.59s-.47-.44-.47-.67c0-.09,.08-.47,.09-.55,.06-.49,.07-.97,.07-1.45,0-.17,0-1.1-.05-1.27q-.02-.05-.11-.12c-1.3,1.26-2.31,1.68-2.96,1.91l-.03-.05c1.74-1.07,4.02-3.95,4.02-4.3,0-.21-.23-.41-.43-.57,.11-.02,.22-.03,.38-.03,.53,0,1.12,.67,1.12,.86,0,.1-.03,.13-.27,.28Z"/><path class="cls-1" d="M131.56,47.13c-.15,1.35-.16,1.5-.26,1.88-.33,1.18-1.21,2.03-1.94,2.33l-.05-.05c1.35-1.37,1.54-2.79,1.54-4.03,0-.39-.03-.54-.16-.64-.05-.04-.46-.16-.54-.19,.08-.03,.43-.18,.5-.2,.05-.03,.11-.03,.15-.03,.17,0,.88,.16,.88,.44,0,.08-.1,.41-.11,.49Zm1.97,3.49c-.11,.09-.38,.3-.62,.54-.03,.03-.06,.05-.09,.05-.13,0-.59-.73-.59-.9,0-.07,.13-.33,.14-.39,.03-.15,.08-.6,.08-1.5,0-.23-.02-2.06-.04-2.17-.03-.2-.31-.3-.67-.41,.16-.09,.35-.21,.58-.21,.27,0,.98,.21,.98,.51,0,.08-.11,.42-.13,.5-.06,.34-.15,2.76-.15,3.19,0,.09,.03,.14,.08,.14,.23,0,1.63-.96,3.03-2.56l.06,.07c-.77,1.68-2.01,2.64-2.66,3.14Z"/></g><g><path class="cls-1" d="M1.05,2.32c.7,0,1.97,.18,3.69,.18,1.23,0,2.67-.07,3.48-.07,.46,0,.84,.18,.84,.42s-.18,.53-.84,.63c-1.86,.35-1.79,1.12-1.65,1.69,.6,1.83,4.39,11.67,5.66,14.7,.07,.07,.25,.28,.35,.04,.28-.74,4.11-9.77,5.7-13.57,.84-1.97-.11-2.39-1.62-2.85-.49-.14-.77-.42-.77-.63,0-.25,.46-.42,1.02-.42,.81,0,1.62,.07,2.81,.07,1.02,0,2.43-.14,3.16-.14,.49,0,1.02,.14,1.02,.46,0,.28-.42,.49-.91,.6-1.55,.39-2.32,1.23-3.06,2.78-1.62,3.52-2.5,5.03-4.64,10.34-2.04,4.96-2.5,5.84-3.3,8.51-.14,.39-.39,.81-.74,.81-.21,0-.49-.28-.56-.67-.21-1.02-.81-3.16-1.83-5.73-1.2-3.2-4.54-11.71-5.06-12.97-.7-1.76-1.44-2.64-2.99-3.09-.42-.14-.81-.28-.81-.6,0-.28,.53-.46,1.05-.46Z"/><path class="cls-1" d="M34.45,12.55c.53,.74,.7,1.44,.7,2.92,0,1.37-.14,5.8-.14,6.19,0,1.62,1.12,1.76,1.41,1.76,.14,0,.95-.25,1.34-.53,.11-.07,.14,0,.21,.11,.11,.11,.11,.32,.11,.35,0,.67-1.58,2.18-3.16,2.18-.81,0-1.83-.46-2.25-1.76,0-.04-.14-.18-.21-.14-1.3,.91-2.81,1.51-3.16,1.62-.39,.14-1.23,.21-1.41,.21-1.23,0-2.43-1.51-2.43-3.27,0-.63,.28-1.3,.67-1.79,.35-.46,.88-.63,1.41-.88,.53-.21,3.34-.98,4.11-1.23,.81-.25,1.02-.42,1.02-.63,.04-.32,.07-2.46,.07-2.88,0-.88-1.02-2.36-2.74-2.36-.74,0-1.2,.21-1.44,.39-.21,.11-.32,.74-.25,1.44,0,.11-.14,.32-.21,.39-.35,.28-2.11,1.16-2.29,1.16-.21,0-.42-.28-.42-.46,0-1.02,.98-2,2.64-3.09,1.02-.74,2.6-1.34,3.27-1.34,1.76,0,2.64,.88,3.16,1.65Zm-2.32,10.48c.21-.14,.42-.81,.42-.88,.07-.84,.07-2.04,.07-2.74,0-.11-.14-.28-.28-.28-.98,0-2.67,.6-3.62,1.05-.35,.25-.7,.49-.7,1.34,0,1.55,1.48,2.11,2.21,2.11,.53,0,1.23-.25,1.9-.6Z"/><path class="cls-1" d="M41.05,12.13c1.16-.39,2.25-.91,2.6-1.12,.42-.28,.6-.42,.7-.42,.14,0,.32,.32,.32,.42,0,.63-.07,1.27-.07,1.93,0,.14,.18,.18,.25,.14,1.37-1.3,2.92-2.18,4.01-2.18,1.44,0,1.76,.88,1.76,1.2,0,.07-.11,.32-.21,.49-.39,.56-1.23,1.51-1.44,1.62-.07,.04-.39-.04-.49-.11-.39-.35-1.23-.77-1.93-.77-.6,0-1.2,.11-1.55,.49-.25,.28-.35,.6-.35,.77,0,.7,.18,7.07,.21,7.59,.07,1.02,.28,1.69,.91,1.79,.46,.11,1.09,.28,1.62,.42,.56,.18,.63,.42,.63,.56,0,.18-.32,.32-.84,.32-.88,0-2.11-.18-4.15-.18-1.05,0-1.48,.14-2.32,.14-.39,0-.74-.14-.74-.42,0-.21,.42-.35,.7-.46,1.37-.46,1.48-.81,1.51-2.92v-6.71c0-.35,0-.81-.39-1.05-.84-.67-1.2-.81-1.2-.95,0-.11,.07-.46,.46-.6Z"/><path class="cls-1" d="M53.92,11.95c1.3-.28,2.95-1.05,3.48-1.2,.14,0,.32,.35,.32,.39,0,.39-.21,4.96-.21,6.96s.04,3.45,.07,4.68c.04,1.12,.81,1.2,1.69,1.48,.56,.18,.77,.35,.77,.6,0,.21-.42,.35-.81,.35-.25,0-2-.11-2.74-.11-1.16,0-2.39,.14-2.99,.14-.56,0-.91-.14-.91-.39,0-.21,.25-.39,.84-.56,.81-.21,1.34-.63,1.41-.98,.11-.49,.14-2.6,.14-3.62,0-.07,.04-5.06-.04-5.48-.04-.25-.42-.53-1.44-1.27-.21-.14-.28-.25-.28-.39,0-.25,.32-.53,.7-.6Zm4.04-6.47c0,.95-.98,1.72-1.69,1.72-.25,0-.81-.14-1.12-.42-.28-.32-.53-.7-.53-1.3,0-.32,.14-.88,.42-1.27,.35-.32,.88-.46,1.37-.46,.95,0,1.55,1.09,1.55,1.72Z"/><path class="cls-1" d="M71.88,12.55c.53,.74,.7,1.44,.7,2.92,0,1.37-.14,5.8-.14,6.19,0,1.62,1.12,1.76,1.41,1.76,.14,0,.95-.25,1.34-.53,.11-.07,.14,0,.21,.11,.11,.11,.11,.32,.11,.35,0,.67-1.58,2.18-3.16,2.18-.81,0-1.83-.46-2.25-1.76,0-.04-.14-.18-.21-.14-1.3,.91-2.81,1.51-3.16,1.62-.39,.14-1.23,.21-1.41,.21-1.23,0-2.43-1.51-2.43-3.27,0-.63,.28-1.3,.67-1.79,.35-.46,.88-.63,1.41-.88,.53-.21,3.34-.98,4.11-1.23,.81-.25,1.02-.42,1.02-.63,.04-.32,.07-2.46,.07-2.88,0-.88-1.02-2.36-2.74-2.36-.74,0-1.2,.21-1.44,.39-.21,.11-.32,.74-.25,1.44,0,.11-.14,.32-.21,.39-.35,.28-2.11,1.16-2.29,1.16-.21,0-.42-.28-.42-.46,0-1.02,.98-2,2.64-3.09,1.02-.74,2.6-1.34,3.27-1.34,1.76,0,2.64,.88,3.16,1.65Zm-2.32,10.48c.21-.14,.42-.81,.42-.88,.07-.84,.07-2.04,.07-2.74,0-.11-.14-.28-.28-.28-.98,0-2.67,.6-3.62,1.05-.35,.25-.7,.49-.7,1.34,0,1.55,1.48,2.11,2.21,2.11,.53,0,1.23-.25,1.9-.6Z"/><path class="cls-1" d="M89.14,23.94c-1.44,1.2-3.55,1.58-4.78,1.58s-3.66-.42-4.46-.7c-.14-.07-.46-.04-.74,.11-.14,.07-.35,.11-.42,.11-.14,0-.21-.21-.21-.46,.18-2.74,.21-8.79,.21-11.67,0-3.34-.11-8.54-.18-9.04-.04-.18-.21-.63-.88-1.2-.53-.39-.7-.49-.7-.67,0-.04,.32-.46,.42-.49,.98-.35,2.18-.67,2.88-1.09,.46-.28,.81-.42,.88-.42,.14,0,.39,.32,.39,.46-.11,2.32-.32,5.66-.32,8.47,0,.91,0,2.64,.07,3.02,0,.07,.18,.18,.21,.14,1.16-.77,2.85-1.2,4.01-1.2,1.65,0,3.23,.56,4.36,1.55,1.58,1.34,2.32,3.3,2.32,5.31,0,2.92-1.51,4.99-3.06,6.19Zm-1.58-9.98c-.81-.81-2.18-1.51-3.83-1.51-1.16,0-1.83,.32-2.11,.53-.11,.07-.25,.28-.28,.53-.04,.32-.07,1.3-.07,2.04,0,1.83,.11,3.73,.28,5.62,.04,.74,.25,1.3,.7,1.76,.98,1.02,2.64,1.48,3.27,1.48,.39,0,1.34-.46,2.14-1.2,.98-.95,1.62-3.13,1.62-4.71,0-1.27-.53-3.23-1.72-4.54Z"/><path class="cls-1" d="M96.13,1.41c1.62-.56,2.67-.77,3.62-1.37,.11-.07,.32,.21,.32,.35-.11,.88-.32,4.85-.32,9.56,0,5.13-.07,11.85,.11,12.8,.14,.7,.28,1.12,1.79,1.55,.53,.14,.81,.32,.81,.53,0,.25-.49,.39-.91,.39-.84,0-2.36-.11-2.99-.11-.81,0-2.36,.11-3.09,.11s-.98-.11-.98-.39c0-.25,.39-.42,.77-.49,1.62-.35,1.69-.98,1.79-2.74,.07-1.34,.25-5.13,.25-10.69,0-2.6-.11-6.29-.11-7.35,0-.28-.04-.49-.84-.98-.6-.42-.7-.53-.7-.67s.11-.39,.49-.49Z"/><path class="cls-1" d="M115.19,12.27c.77,.74,1.23,1.72,1.23,2.95,0,.21-.28,.6-.67,.6s-6.4,0-8.02-.04c-.11,0-.25,.18-.28,.28-.11,.28-.18,.88-.18,1.23,0,1.37,.56,2.99,1.34,4.01,.77,1.05,2.25,1.93,3.94,1.93,1.55,0,2.6-.39,3.2-1.27,.14-.21,.32-.42,.46-.42,.21,0,.28,.25,.28,.42,0,.28-.14,.67-.25,.84-1.23,1.79-3.09,2.64-5.1,2.64-3.8,0-6.33-2.88-6.33-7,0-2.81,1.48-5.62,4.22-6.89,.91-.42,2.07-.63,2.67-.63,1.23,0,2.6,.46,3.48,1.34Zm-7.38,2.18c-.07,.18,.07,.39,.14,.39,.91,.04,2.78,.04,4.54,0,.84,0,1.2-.18,1.2-.88,0-.98-1.05-2.11-2.32-2.11-1.58,0-2.92,.98-3.55,2.6Z"/><path class="cls-1" d="M134.48,11.11c.39,.07,1.05,.35,1.12,.39,.07,.04,.28,.28,.28,.49,0,.63,.11,1.83,.11,2.07,0,.32-.14,.63-.42,.63-.14,0-.35-.21-.53-.6-.77-1.65-1.65-2.36-2.81-2.36-1.44,0-2.11,1.44-2.11,2.18,0,1.2,1.12,2.11,3.48,3.41,1.97,1.16,2.74,2.36,2.74,3.94s-1.16,2.81-2.04,3.45c-.63,.42-1.86,.81-2.95,.81s-2.81-.28-3.41-.77c-.11-.18-.53-1.65-.53-2.67,0-.39,.07-.74,.28-.74,.28,0,.53,.42,.74,.81,.98,1.79,1.93,2.5,3.2,2.5,.46,0,1.02-.25,1.41-.53,.53-.42,.81-1.27,.81-1.93,0-.95-.49-1.69-1.58-2.36-.84-.6-1.05-.77-2.14-1.48-1.05-.67-2.18-1.9-2.18-3.55,0-1.2,.6-2.36,1.93-3.16,.67-.42,1.62-.74,2.81-.74,.67,0,1.41,.11,1.79,.21Z"/><path class="cls-1" d="M148.44,11.25s.39,.18,.39,.28c0-.11,.11,.88,.11,1.34,0,.32-.67,.39-.91,.39h-3.83c-.18,0-.32,.18-.32,.25-.04,.7-.07,5.87-.07,7.56,0,.88,.21,1.34,.6,1.72,.67,.6,1.41,.67,2.14,.67,.46,0,1.2-.21,1.72-.53,.32-.18,.39-.21,.53-.21,.04,0,.21,.07,.21,.39,0,.28-.25,.63-.49,.88-.95,.91-2.18,1.55-3.76,1.55-1.44,0-2.67-.88-3.09-1.65-.39-.6-.46-1.34-.46-2.32,0-1.3,.14-6.57,.14-7.8,0-.25-.63-.49-1.34-.7-.28-.11-.49-.28-.49-.39,0-.14,.11-.28,.21-.39,1.23-.98,2.32-1.83,2.81-2.43,.42-.49,.67-.77,.81-.77,.18,0,.49,.32,.49,.39v1.65c0,.11,.14,.28,.28,.28,.77,0,4.18-.14,4.32-.14Z"/><path class="cls-1" d="M151.21,11.29c.88,0,1.72,.14,2.74,.14s2.04-.07,2.46-.07c.28,0,.77,.11,.77,.39,0,.25-.25,.46-.81,.6-.98,.28-1.09,.46-.74,1.37,.53,1.69,2.78,7.17,3.06,7.59,.04,.07,.18,.07,.28-.14,.42-.95,2.6-6.61,2.78-7.17,.32-.98,.04-1.41-1.34-1.72-.42-.11-.74-.35-.74-.49,0-.32,.46-.42,.88-.42,.67,0,1.62,.07,2.07,.07,.49,0,1.3-.14,2.21-.14,.46,0,.7,.07,.7,.32,0,.32-.35,.46-.77,.6-.74,.25-1.2,.67-1.72,1.83-1.16,2.64-3.06,7.31-3.87,9.35-1.23,3.2-2.53,6.82-3.66,9.81-.14,.46-.81,.98-1.83,.98-1.2,0-1.58-.98-1.58-1.72,0-.6,.56-1.55,1.55-1.55,.18,0,.91,.04,1.27,.04,.32,0,.39-.25,.53-.6,.32-.56,1.44-3.66,1.69-4.54,.11-.49,.25-.95,.11-1.27-.11-.25-.39-1.05-.53-1.44-.74-2.07-2.92-7.28-4.01-9.49-.32-.63-.49-.98-1.65-1.37-.49-.18-.7-.32-.7-.53,0-.14,.11-.42,.84-.42Z"/><path class="cls-1" d="M167.91,1.41c1.62-.56,2.67-.77,3.62-1.37,.11-.07,.32,.21,.32,.35-.11,.88-.32,4.85-.32,9.56,0,5.13-.07,11.85,.11,12.8,.14,.7,.28,1.12,1.79,1.55,.53,.14,.81,.32,.81,.53,0,.25-.49,.39-.91,.39-.84,0-2.36-.11-2.99-.11-.81,0-2.36,.11-3.09,.11s-.98-.11-.98-.39c0-.25,.39-.42,.77-.49,1.62-.35,1.69-.98,1.79-2.74,.07-1.34,.25-5.13,.25-10.69,0-2.6-.11-6.29-.11-7.35,0-.28-.04-.49-.84-.98-.6-.42-.7-.53-.7-.67s.11-.39,.49-.49Z"/><path class="cls-1" d="M186.96,12.27c.77,.74,1.23,1.72,1.23,2.95,0,.21-.28,.6-.67,.6s-6.4,0-8.02-.04c-.11,0-.25,.18-.28,.28-.11,.28-.18,.88-.18,1.23,0,1.37,.56,2.99,1.34,4.01,.77,1.05,2.25,1.93,3.94,1.93,1.55,0,2.6-.39,3.2-1.27,.14-.21,.32-.42,.46-.42,.21,0,.28,.25,.28,.42,0,.28-.14,.67-.25,.84-1.23,1.79-3.09,2.64-5.1,2.64-3.8,0-6.33-2.88-6.33-7,0-2.81,1.48-5.62,4.22-6.89,.91-.42,2.07-.63,2.67-.63,1.23,0,2.6,.46,3.48,1.34Zm-7.38,2.18c-.07,.18,.07,.39,.14,.39,.91,.04,2.78,.04,4.54,0,.84,0,1.2-.18,1.2-.88,0-.98-1.05-2.11-2.32-2.11-1.58,0-2.92,.98-3.55,2.6Z"/></g></svg>
