<?xml version="1.0" encoding="UTF-8"?><svg xmlns="http://www.w3.org/2000/svg" viewBox="0 0 193.11 70.27"><defs><style>.cls-1{fill: #596f9f;}
</style></defs><g id="_レイヤー_2"><g><path class="cls-1" d="M35.37,33.23c3.34,0,6.9-1.57,9.09-4.07l.26,.21c-2.35,2.61-6.06,4.49-9.56,4.49l-1.31,2.98-3.6,.31,1.41-3.45c-3.66-.26-7.16-1.41-10.24-3.29-3.87,3.4-8.67,6.74-14,6.74-3.76,0-7.42-1.83-7.42-6.01,0-1.51,1.1-2.98,2.66-2.98,1.1,0,2.04,.89,2.04,1.99,0,2.87-2.93,1.52-2.93,3.03,0,2.25,3.97,3.34,5.64,3.34,5.12,0,9.72-3.29,13.43-6.48-3.4-2.14-7.47-7-7.47-11.18,0-5.07,3.66-9.04,8.78-9.04,4.65,0,8.83,3.34,10.55,7.52C37.09,12.33,47.6,1.78,54.39,0l.21,.21c-6.69,5.59-15.88,25.39-19.23,33.02Zm-3.08-15.41c-1.62-3.92-5.22-6.84-9.56-6.84-5.07,0-7.58,4.39-7.58,8.99,0,3.81,2.98,7.78,6.06,9.72,4.02-3.66,7.58-7.73,11.02-11.86h.05Zm.16,.68c-3.34,3.97-6.84,8.04-10.71,11.49,3.24,2.04,6.32,2.87,10.08,3.19,1.1-2.56,1.57-5.33,1.57-8.1,0-2.19-.21-4.49-.94-6.58ZM53.34,.63c-7.21,3.34-15.26,11.49-20.38,17.35,.63,2.09,1.05,4.29,1.05,6.48,0,1.88-.26,3.76-.58,5.59l.1,.1c4.28-10.76,11.49-21.42,19.85-29.41l-.05-.11Z"/><path class="cls-1" d="M49.85,36.83c-1.62,0-2.51-1.2-2.51-2.77,0-3.55,3.08-6.95,4.96-9.77l-.1-.1c-.84,.84-4.96,5.43-5.17,5.54l-.21-.31c1.62-2.61,4.28-4.6,6.06-7.05l3.29-.21c-.89,1.46-7.26,11.39-7.26,12.96,0,.68,.31,1.1,.99,1.1,2.66,0,7.31-5.49,8.99-7.42l.31,.31c-1.57,2.14-6.43,7.73-9.35,7.73Zm9.35-21.63c-.78,0-1.2-.63-1.2-1.36,0-1.04,.73-2.04,1.83-2.04,.78,0,1.2,.68,1.2,1.41,0,.99-.78,1.99-1.83,1.99Z"/><path class="cls-1" d="M70.38,32.6c-1.15,0-2.3-.84-2.3-2.04,0-1.1,.37-2.14,1.04-2.98l-.11-.1c-2.93,2.77-5.43,5.85-7.89,9.04l-3.29,.31c.94-1.57,8.04-11.91,8.04-13.32,0-.47-.47-.73-.89-.73-1.93,0-6.74,5.38-7.94,7l-.26-.26c1.62-2.04,5.69-7.37,8.41-7.37,1.36,0,2.04,1.31,2.04,2.51,0,2.09-2.04,5.43-3.29,7.11l.1,.11c1.2-1.41,5.28-5.02,5.8-6.43,.58-1.51,1.57-3.29,3.45-3.29,.57,0,1.25,.11,1.25,.84,0,2.14-5.85,3.66-5.85,7.31,0,.94,.73,1.78,1.72,1.78,1.78,0,3.19-1.72,4.13-3.03l.31,.26c-1.15,1.57-2.35,3.29-4.49,3.29Z"/><path class="cls-1" d="M89.61,38.51c-1.98,3.61-8.67,14.79-13.53,14.79-1.67,0-2.56-1.2-2.56-2.82,0-4.81,10.92-10.82,14.47-12.96l4.54-8.78-.1-.11c-1.46,2.09-7,8.1-9.56,8.1-1.46,0-2.25-1.78-2.25-3.03,0-3.92,5.02-7.73,5.02-10.24,0-.37-.52-.68-.84-.68-2.14,0-7,5.38-8.15,7l-.21-.26c0-1.15,6.27-7.37,8.46-7.37,1.62,0,2.3,1.52,2.3,2.93,0,3.76-5.02,8.1-5.02,10.24,0,.52,.21,.78,.73,.78,3.4,0,11.7-10.55,13.22-13.64l3.34-.31-9.3,15.26,.1,.11c3.45-1.62,6.06-4.39,8.57-7.21,.1-.1,1.15-1.25,1.25-1.25l.21,.26c-3.29,4.18-5.96,6.74-10.71,9.2Zm-2.14,0c-3.03,1.93-12.8,7.94-12.8,12.17,0,.99,.42,1.98,1.57,1.98,4.39,0,9.67-10.76,11.29-14.11l-.05-.05Z"/><path class="cls-1" d="M113.69,36.83c-1.52,0-3.19-.47-3.19-2.35,0-.89,.37-1.51,1.31-1.51,.47,0,1.1,.31,1.1,.84,0,.99-.73,.78-.73,1.62,0,.52,.37,.78,.89,.78,2.77,0,5.28-6.37,5.28-8.67,0-.63-.1-4.6,.31-4.96l-.1-.1c-2.61,1.62-4.02,5.69-6.53,7.26l-.21-.21c0-.42,6.11-7.47,6.84-7.89,.26-.73,.89-1.57,1.72-1.57,.52,0,.89,.26,.89,.78,0,1.04-1.31,1.36-2.09,1.62-.1,.42-.21,.84-.21,1.25,0,2.51,1.1,4.81,1.1,7.21,0,1.2-.63,2.25-1.41,3.13l.05,.05c1.98-1.41,3.4-3.34,5.07-5.12l.26,.31c-2.46,3.19-5.9,7.52-10.34,7.52Z"/><path class="cls-1" d="M143.48,18.03h-6.48c-1.78,3.19-9.93,14.84-9.93,17.4,0,.57,.47,.78,.99,.78,2.56,0,7.58-5.33,8.99-7.21l.26,.31c-1.78,2.14-6.37,7.52-9.35,7.52-1.52,0-2.46-1.1-2.46-2.56,0-3.55,2.87-7.26,4.86-10.03l-.1-.1c-1.67,2.04-3.45,3.97-5.22,5.96l-.26-.21c.52-1.2,7.89-9.61,9.4-11.86h-1.88l-.26-.31,.21-.31h2.19l3.08-5.07,3.24-.21-3.4,5.28h6.11l.26,.31-.26,.31Z"/><path class="cls-1" d="M154.18,38.51c-1.98,3.61-8.67,14.79-13.53,14.79-1.67,0-2.56-1.2-2.56-2.82,0-4.81,10.92-10.82,14.47-12.96l4.54-8.78-.1-.11c-1.46,2.09-7,8.1-9.56,8.1-1.46,0-2.25-1.78-2.25-3.03,0-3.92,5.02-7.73,5.02-10.24,0-.37-.52-.68-.84-.68-2.14,0-7,5.38-8.15,7l-.21-.26c0-1.15,6.27-7.37,8.46-7.37,1.62,0,2.3,1.52,2.3,2.93,0,3.76-5.02,8.1-5.02,10.24,0,.52,.21,.78,.73,.78,3.4,0,11.7-10.55,13.22-13.64l3.34-.31-9.3,15.26,.1,.11c3.45-1.62,6.06-4.39,8.57-7.21,.1-.1,1.15-1.25,1.25-1.25l.21,.26c-3.29,4.18-5.96,6.74-10.71,9.2Zm-2.14,0c-3.03,1.93-12.8,7.94-12.8,12.17,0,.99,.42,1.98,1.57,1.98,4.39,0,9.67-10.76,11.29-14.11l-.05-.05Z"/><path class="cls-1" d="M167.98,35.53l.84,.68c2.72,0,7.52-5.28,9.04-7.21l.26,.26c-1.83,2.25-6.27,7.58-9.46,7.58-1.67,0-2.25-1.15-2.25-2.66,0-3.45,3.6-7.79,5.33-10.66l-.1-.11c-1.78,2.25-3.76,4.75-5.9,6.64l-.21-.26c7-7.05,11.86-15.94,16.98-24.35l3.45-.37c-1.98,3.13-17.97,27.32-17.97,30.46Z"/><path class="cls-1" d="M182.4,36.83c-3.5,0-4.6-4.28-3.97-7.11l-.05-.1-.16,.16-.26-.31c2.51-3.08,6.64-7.31,10.97-7.31,1.52,0,2.61,1.05,2.61,2.56,0,3.92-7.68,6.32-10.76,6.95-.1,.57-.21,1.15-.21,1.72,0,1.67,.31,2.82,2.19,2.82,3.5,0,8.2-4.65,10.08-7.21l.26,.31c-2.51,3.19-6.27,7.52-10.71,7.52Zm6.53-14.05c-2.98,0-7.26,5.59-7.94,8.26,3.29-.42,8.99-3.34,8.99-7.21,0-.68-.37-1.04-1.05-1.04Z"/></g></g><g id="_レイヤー_4"><g><path class="cls-1" d="M74.67,68.79c-.1,0-.54-.13-.62-.15-.38-.08-1.63-.17-1.98-.17-1.4,0-2.87,.24-3.15,.34-.06,.03-.33,.16-.39,.16-.25,0-.77-.57-.77-1.03,0-.13,.03-.23,.06-.33,.18,.27,.38,.6,1.01,.6,0,0,1.28-.09,1.52-.1,.23,0,.26-.02,.62-.03,0-.27,0-1.47,0-1.72,0-.9-.08-.92-.38-1.03-.15,.03-.85,.15-.96,.15-.2,0-.73-.48-.73-.87,.17,.11,.45,.3,1.14,.3,.29,0,2.14-.13,2.45-.24,.06-.03,.29-.15,.34-.15,.11,0,.73,.14,.73,.44,0,.02,0,.27-.34,.27-.21,0-1.13-.02-1.32-.02s-.25,0-.4,.02c.22,.16,.26,.2,.26,.3,0,.07-.11,.37-.12,.43-.06,.51-.12,1.89-.13,2.08,.8-.04,1.23-.06,1.48-.06s.44,0,.58-.03c.14-.03,.32-.06,.38-.06,.27,0,.9,.32,.9,.7,0,.15-.11,.21-.2,.21Z"/><path class="cls-1" d="M82.16,65.07c-.07,.02-.17,.05-.26,.1-.62,.39-.73,.46-1.77,1.09-.56,2.14-1,3.21-2.41,3.92l-.03-.05c1.43-1.55,1.71-3.79,1.71-4,0-.32-.13-.37-.62-.54,.19-.09,.33-.16,.51-.16,.23,0,.76,.15,.85,.34,.04,.09,.03,.15,.03,.19,.85-.75,1.2-1.23,1.2-1.36,0-.04,0-.06-.09-.06-.05,0-2.61,.22-3.44,.55-.07,.03-.36,.16-.42,.16-.1,0-.41-.22-.49-.28-.32-.29-.34-.34-.34-.56,0-.24,.04-.34,.07-.44,.23,.37,.54,.49,.87,.49,.36,0,3.25-.33,3.9-.43,.07-.02,.35-.12,.41-.12,.17,0,.9,.73,.9,.89,0,.14-.03,.14-.59,.26Z"/><path class="cls-1" d="M85.85,64.5c-.08,.17-.14,.34-.14,.96,0,.21,.03,1.15,.03,1.35,0,.13,0,.7-.32,.7-.16,0-.47-.26-.47-.73,0-.08,.04-.38,.06-.54,.03-.27,.03-.86,.03-1.29,0-.62,0-.79-.72-.96,.14-.09,.34-.21,.54-.21,.24,0,1.04,.27,1.04,.51,0,.04,0,.08-.07,.2Zm2.9-.03c-.04,.33-.02,.87-.03,1.2-.03,1.58-.14,2.66-1.04,3.62-.3,.32-.89,.84-1.63,.92l-.03-.06c1.13-.62,1.67-1.86,1.82-2.57,.19-.95,.19-2.3,.19-2.56,0-1.19-.04-1.21-.83-1.38,.13-.1,.31-.25,.65-.25,.43,0,1.05,.26,1.05,.46,0,.09-.15,.52-.15,.62Z"/><path class="cls-1" d="M97.39,67.1c-.14,0-.35,0-.52-.03-.16,0-2.25-.03-2.39-.03-.5,0-1.8,.03-2.2,.14-.15,.04-.22,.06-.29,.06-.32,0-.79-.67-.79-1.02,0-.11,.03-.26,.14-.48,.3,.6,.5,.7,1.52,.7,.5,0,3.46,0,3.75-.11,.13-.04,.23-.09,.34-.09,.02,0,1.02,.08,1.02,.53,0,.15-.16,.32-.57,.32Z"/><path class="cls-1" d="M105.68,69.68c-.23,0-.36-.22-.44-.36-.66-1.09-1.05-1.64-1.73-2.18-1.31,1.56-2.61,2.38-3.81,2.6v-.07c2.04-.95,4.15-3.81,4.44-5.02-.03,0-1.73,.32-2.19,.54-.25,.13-.28,.14-.35,.14-.13,0-.67-.39-.67-.94,0-.22,.04-.28,.08-.38,.35,.45,.42,.55,.7,.55,.21,0,2.08-.16,2.43-.38,.06-.04,.33-.27,.4-.27,.11,0,.78,.63,.78,.77,0,.09-.06,.12-.33,.22-.08,.03-.11,.09-.24,.33-.56,1.03-.66,1.2-1.1,1.77,1.04,.44,2.38,1.46,2.38,2.23,0,.21-.08,.47-.33,.47Z"/><path class="cls-1" d="M113.34,65.18c-.19,.08-.2,.08-.54,.69-1.42,2.5-2.23,3.01-2.89,3.42-.75,.48-1.39,.63-1.67,.7l-.02-.06c1.21-.63,2.13-1.54,2.88-2.54-.14-.04-.28-.22-.31-.25-.61-.72-.65-.77-1.03-.99-.38,.4-.87,.83-1.46,1.09l-.02-.05c.93-.92,2.06-2.78,2.06-3.13,0-.28-.3-.38-.51-.46,.12-.07,.25-.15,.46-.15,.49,0,1.04,.4,1.04,.62,0,.08-.03,.1-.21,.29-.08,.09-.16,.21-.22,.29,.38,.03,1.28-.09,1.5-.16,.07-.03,.38-.24,.45-.24,.09,0,.71,.61,.71,.75,0,.09-.03,.09-.24,.17Zm-2.16-.03c-.08,0-.16,0-.46-.21-.48,.67-.82,1.07-.85,1.09,.39,.03,1.46,.17,1.56,.91,.66-1.03,.89-1.69,.99-2-1.02,.19-1.13,.21-1.25,.21Z"/><path class="cls-1" d="M119.95,64.3c-.24,.17-.34,.28-.56,.51-.14,.14-.73,.81-.85,.95,.14,.08,.44,.29,.44,.41,0,.06-.09,.3-.09,.35,0,.07-.03,.52-.03,1.07,0,.33,.06,1.8,.06,2.09,0,.21-.08,.59-.33,.59s-.47-.44-.47-.67c0-.09,.08-.47,.08-.55,.06-.49,.07-.97,.07-1.45,0-.17,0-1.1-.05-1.27q-.02-.05-.11-.12c-1.3,1.26-2.31,1.68-2.96,1.91l-.03-.05c1.74-1.07,4.02-3.95,4.02-4.3,0-.21-.23-.41-.43-.57,.11-.02,.22-.03,.38-.03,.53,0,1.12,.67,1.12,.86,0,.1-.03,.13-.26,.28Z"/><path class="cls-1" d="M125.02,65.29c-.15,1.35-.16,1.5-.26,1.88-.33,1.18-1.21,2.03-1.94,2.33l-.05-.05c1.35-1.37,1.54-2.79,1.54-4.03,0-.39-.03-.54-.16-.64-.05-.04-.46-.16-.54-.19,.08-.03,.43-.18,.5-.2,.05-.03,.11-.03,.15-.03,.17,0,.88,.16,.88,.44,0,.08-.1,.41-.11,.49Zm1.96,3.49c-.11,.09-.38,.3-.62,.54-.03,.03-.06,.05-.09,.05-.13,0-.59-.73-.59-.9,0-.07,.13-.33,.14-.39,.03-.15,.08-.6,.08-1.5,0-.23-.02-2.06-.03-2.17-.04-.2-.31-.3-.68-.41,.16-.09,.35-.21,.58-.21,.27,0,.98,.21,.98,.51,0,.08-.11,.42-.13,.5-.06,.34-.15,2.76-.15,3.19,0,.09,.03,.14,.08,.14,.23,0,1.63-.96,3.03-2.56l.06,.07c-.77,1.68-2.01,2.64-2.66,3.14Z"/></g></g></svg>
