<?xml version="1.0" encoding="utf-8"?>
<!-- Generator: Adobe Illustrator 26.4.1, SVG Export Plug-In . SVG Version: 6.00 Build 0)  -->
<svg version="1.1" id="編集モード" xmlns="http://www.w3.org/2000/svg" xmlns:xlink="http://www.w3.org/1999/xlink" x="0px"
	 y="0px" width="222.415px" height="51.905px" viewBox="0 0 222.415 51.905" style="enable-background:new 0 0 222.415 51.905;"
	 xml:space="preserve">
<style type="text/css">
	.st0{fill:#4F9879;}
</style>
<g>
	<path class="st0" d="M12.952,3.755H3.919V16.88h9.033v-4.61H8.195V8.739h8.583v7.142c0,1.896-0.241,3.188-0.723,3.874
		c-0.482,0.687-1.411,1.03-2.786,1.03H3.508c-1.374,0-2.303-0.344-2.783-1.03C0.241,19.069,0,17.777,0,15.88V4.952
		c0-1.883,0.241-3.17,0.725-3.864c0.48-0.693,1.409-1.04,2.783-1.04h9.762c1.357,0,2.282,0.341,2.771,1.02
		c0.491,0.681,0.737,1.909,0.737,3.689v0.471l-3.826,0.844V3.755z"/>
	<path class="st0" d="M18.955,20.699L26.956,0h4.406l8.081,20.785h-4.178l-1.7-4.532h-8.972l-1.647,4.532L18.955,20.699z
		 M25.999,12.506h6.199L29.145,4.07L25.999,12.506z"/>
	<path class="st0" d="M42.142,20.785V0.047h12.104c1.125,0,1.939,0.316,2.444,0.951c0.504,0.635,0.756,1.658,0.756,3.071v4.864
		c0,1.401-0.252,2.42-0.756,3.061c-0.505,0.641-1.319,0.962-2.444,0.962h-1.534l6.221,7.827h-4.727l-5.561-7.173l-2.637-3.404
		v10.577H42.142z M52.161,3.637h-6.153v5.769h6.153c0.571,0,0.962-0.121,1.172-0.362c0.209-0.242,0.314-0.671,0.314-1.286V5.265
		c0-0.601-0.106-1.023-0.314-1.265C53.123,3.758,52.732,3.637,52.161,3.637z"/>
	<path class="st0" d="M62.757,20.785V0.047h9.105c2.598,0,4.595,0.889,5.992,2.668c1.397,1.779,2.096,4.304,2.096,7.572
		c0,1.938-0.273,3.68-0.817,5.23c-0.545,1.55-1.312,2.77-2.303,3.659c-0.615,0.562-1.382,0.971-2.296,1.227
		c-0.916,0.255-2.087,0.382-3.516,0.382H62.757z M66.676,16.88h3.008c2.267,0,3.874-0.219,4.82-1.252
		c0.945-1.034,1.419-2.822,1.419-5.203c0-2.119-0.393-4.022-1.178-5.114c-0.785-1.093-1.946-1.639-3.481-1.639l-4.588,0.083V16.88z"
		/>
	<path class="st0" d="M84.617,20.785V0.047h14.488v3.531H88.537v4.63h6.534v3.531h-6.534v5.141h10.702v3.904H84.617z"/>
	<path class="st0" d="M103.747,20.785V0.047h2.651l9.735,12.223c0.339,0.406,0.638,0.788,0.896,1.147
		c0.771,1.072,0.38,1.633,0.084,1.108c0.053,1.164-0.016-14.478-0.016-14.478h3.672v20.737h-2.627L107.924,7.974
		c-0.249-0.327-0.468-0.622-0.656-0.884c-0.187-0.261,0.265-0.528,0.104-0.804c0.045,0.64,0.024,14.498,0.024,14.498H103.747z"/>
	<path class="st0" d="M146.241,3.676h-8.298V8.13h8.766c1.384,0,2.319,0.347,2.805,1.04c0.487,0.693,0.73,1.981,0.73,3.864v2.846
		c0,1.883-0.243,3.172-0.73,3.865c-0.485,0.692-1.421,1.039-2.805,1.039h-9.312c-1.383,0-2.318-0.347-2.804-1.039
		c-0.487-0.693-0.73-1.982-0.73-3.865v-0.569l3.815-0.883v2.452h8.751v-4.727h-8.766c-1.375,0-2.304-0.348-2.786-1.04
		c-0.481-0.693-0.723-1.981-0.723-3.865V4.952c0-1.883,0.241-3.17,0.723-3.864c0.482-0.693,1.411-1.04,2.786-1.04h8.885
		c1.33,0,2.246,0.333,2.751,1.001c0.505,0.667,0.757,1.851,0.757,3.551v0.432l-3.815,1V3.676z"/>
	<path class="st0" d="M162.602,3.755v17.029h-3.919V3.755H152.5V0.047h16.31v3.708H162.602z"/>
	<path class="st0" d="M177.015,20.785v-8.981l-7.352-11.756h4.704l4.549,7.667l4.836-7.667h4.533l-7.324,11.637v9.101H177.015z"/>
	<path class="st0" d="M190.432,20.785V0.047h3.919V16.88h9.992v3.904H190.432z"/>
	<path class="st0" d="M207.792,20.785V0.047h14.488v3.531h-10.568v4.63h6.535v3.531h-6.535v5.141h10.703v3.904H207.792z"/>
</g>
<g>
	<g>
		<path class="st0" d="M80.536,46.758c-0.03,0.02-0.3,1.508-0.33,1.678c-0.22,1.18-0.919,2.94-1.709,2.94
			c-0.21,0-0.24-0.16-0.32-0.5c-0.03-0.141-0.26-0.66-0.68-1.15l0.03-0.029c0.37,0.211,0.999,0.449,1.109,0.449
			c0.25,0,0.479-0.67,0.6-0.998c0.31-0.891,0.45-1.82,0.44-2.77c-0.15,0.02-0.59,0.08-0.87,0.109c-0.11,0.012-0.67,0.08-0.77,0.09
			c-0.3,1.01-1.069,3.648-3.678,4.719l-0.06-0.08c1.449-1.1,2.339-2.85,2.909-4.518c-0.709,0.109-1.229,0.279-1.449,0.34
			c-0.06,0.02-0.3,0.15-0.35,0.15c-0.29,0-0.869-0.59-0.869-1.01c0-0.07,0.01-0.109,0.03-0.18c0.47,0.299,0.75,0.369,1.009,0.369
			c0.19,0,1.02-0.109,1.799-0.199c0.16-0.621,0.21-1.041,0.21-1.24c0-0.609-0.17-0.76-0.48-0.929c0.11-0.05,0.3-0.14,0.47-0.14
			c0.3,0,1.149,0.399,1.149,0.709c0,0.1-0.02,0.141-0.23,0.359c-0.04,0.051-0.04,0.07-0.11,0.32c-0.03,0.129-0.13,0.5-0.21,0.809
			c1.06-0.139,1.18-0.158,1.359-0.318c0.1-0.09,0.17-0.15,0.26-0.15c0.17,0,1,0.52,1,0.818
			C80.795,46.547,80.706,46.618,80.536,46.758z M81.215,45.739c-0.19,0-0.32-0.201-0.49-0.49c-0.36-0.6-0.69-0.879-1.01-1.129
			c0.8,0.139,1.819,0.578,1.819,1.168C81.535,45.447,81.425,45.739,81.215,45.739z M82.285,45.239c-0.17,0-0.26-0.121-0.53-0.5
			c-0.4-0.57-0.709-0.79-0.989-0.98c0.649-0.02,1.809,0.33,1.809,1.06C82.575,45.037,82.455,45.239,82.285,45.239z"/>
		<path class="st0" d="M91.535,48.166c-0.16,0-0.41-0.01-0.609-0.029c-0.19-0.01-2.629-0.031-2.799-0.031
			c-0.58,0-2.108,0.031-2.568,0.16c-0.18,0.051-0.26,0.07-0.34,0.07c-0.37,0-0.93-0.789-0.93-1.189c0-0.129,0.04-0.299,0.16-0.559
			c0.35,0.699,0.59,0.818,1.779,0.818c0.58,0,4.048-0.01,4.388-0.129c0.15-0.051,0.27-0.1,0.4-0.1c0.02,0,1.189,0.09,1.189,0.619
			C92.205,47.967,92.015,48.166,91.535,48.166z"/>
		<path class="st0" d="M95.769,51.864c1.409-1.109,2.399-3.358,2.399-4.197c0-0.27-0.05-0.33-0.17-0.469
			c-0.87,0.119-1.27,0.229-1.589,0.33c-0.14,0.049-0.629,0.219-0.729,0.219c-0.21,0-0.919-0.568-0.919-1.139
			c0-0.18,0.04-0.279,0.08-0.391c0.3,0.42,0.45,0.641,0.989,0.641c0.01,0,4.288-0.471,4.567-0.529c0.11-0.021,0.55-0.17,0.65-0.17
			c0.13,0,1.21,0.18,1.21,0.709c0,0.33-0.24,0.33-0.34,0.33c-0.03,0-1.01-0.121-1.129-0.131c-0.35-0.039-0.61-0.039-0.75-0.039
			c-0.39,0-0.76,0.02-1.209,0.07c0.41,0.289,0.47,0.299,0.47,0.418c0,0.07-0.17,0.33-0.2,0.391c-0.05,0.109-0.21,0.6-0.25,0.699
			c-0.729,1.91-1.849,2.969-3.028,3.299L95.769,51.864z M97.348,44.768c0.48,0,1.289-0.129,1.699-0.229
			c0.11-0.031,0.58-0.182,0.68-0.182c0.15,0,0.859,0.141,0.859,0.5c0,0.311-0.21,0.32-1.189,0.361c-0.6,0.02-1.08,0.068-1.589,0.139
			c-0.18,0.031-0.68,0.1-0.83,0.1c-0.31,0-0.779-0.379-0.779-0.838c0-0.051,0.01-0.102,0.04-0.25
			C96.329,44.469,96.609,44.768,97.348,44.768z M102.556,45.768c0,0.16-0.07,0.33-0.27,0.33c-0.13,0-0.16-0.029-0.44-0.34
			c-0.529-0.57-0.77-0.75-0.929-0.869C101.186,44.899,102.556,44.918,102.556,45.768z M103.275,45.078c0,0.209-0.1,0.35-0.25,0.35
			c-0.13,0-0.16-0.039-0.4-0.32c-0.4-0.449-0.43-0.479-1.109-0.898C102.326,44.268,103.275,44.369,103.275,45.078z"/>
		<path class="st0" d="M107.268,46.188c-0.17,0-0.3-0.141-0.64-0.481c-0.82-0.828-1.31-1.049-1.669-1.219
			c0.18-0.02,0.3-0.029,0.49-0.029c0.34,0,2.208,0.139,2.208,1.248C107.657,46.018,107.427,46.188,107.268,46.188z M108.167,49.516
			c-0.37,0.289-0.969,0.719-1.309,1.029c-0.06,0.051-0.29,0.32-0.35,0.35c-0.05,0.029-0.1,0.041-0.14,0.041
			c-0.36,0-1.069-0.91-1.069-1.4c0-0.17,0.039-0.34,0.07-0.469c0.32,0.539,0.62,0.68,0.79,0.68c0.28,0,1.949-1.221,2.309-1.5
			c1.629-1.27,2.589-2.348,3.129-2.969l0.04,0.02C111.475,45.938,110.476,47.717,108.167,49.516z"/>
		<path class="st0" d="M120.085,51.186c-0.27,0-0.42-0.262-0.52-0.42c-0.77-1.279-1.229-1.92-2.029-2.549
			c-1.529,1.818-3.048,2.787-4.458,3.037v-0.08c2.389-1.109,4.857-4.457,5.188-5.877c-0.03,0.012-2.029,0.371-2.559,0.631
			c-0.29,0.15-0.33,0.16-0.41,0.16c-0.15,0-0.779-0.461-0.779-1.1c0-0.26,0.04-0.33,0.09-0.44c0.41,0.529,0.49,0.639,0.819,0.639
			c0.24,0,2.429-0.19,2.839-0.449c0.07-0.051,0.39-0.32,0.47-0.32c0.13,0,0.909,0.74,0.909,0.9c0,0.109-0.07,0.139-0.39,0.26
			c-0.09,0.039-0.13,0.109-0.28,0.379c-0.66,1.199-0.77,1.4-1.29,2.068c1.22,0.51,2.789,1.711,2.789,2.609
			C120.475,50.875,120.385,51.186,120.085,51.186z"/>
		<path class="st0" d="M129.046,45.918c-0.22,0.09-0.23,0.09-0.63,0.809c-1.659,2.93-2.608,3.518-3.378,3.998
			c-0.879,0.561-1.629,0.74-1.949,0.82l-0.02-0.07c1.409-0.74,2.488-1.799,3.368-2.969c-0.16-0.049-0.33-0.26-0.36-0.289
			c-0.71-0.84-0.76-0.9-1.21-1.16c-0.45,0.471-1.02,0.969-1.709,1.279l-0.02-0.061c1.089-1.078,2.409-3.248,2.409-3.656
			c0-0.33-0.35-0.451-0.6-0.541c0.14-0.08,0.289-0.17,0.539-0.17c0.57,0,1.219,0.47,1.219,0.72c0,0.1-0.03,0.119-0.24,0.34
			c-0.1,0.1-0.19,0.238-0.26,0.34c0.45,0.039,1.499-0.102,1.759-0.191c0.08-0.029,0.44-0.279,0.53-0.279
			c0.11,0,0.83,0.709,0.83,0.879C129.326,45.819,129.296,45.819,129.046,45.918z M126.517,45.877c-0.09,0-0.19,0-0.54-0.24
			c-0.56,0.781-0.959,1.25-0.989,1.279c0.46,0.031,1.709,0.201,1.829,1.06c0.77-1.209,1.04-1.979,1.16-2.34
			C126.787,45.858,126.657,45.877,126.517,45.877z"/>
		<path class="st0" d="M136.776,44.889c-0.28,0.199-0.4,0.33-0.65,0.6c-0.16,0.17-0.85,0.949-0.999,1.109
			c0.17,0.1,0.52,0.34,0.52,0.479c0,0.07-0.1,0.35-0.11,0.41c-0.01,0.08-0.03,0.609-0.03,1.25c0,0.389,0.07,2.109,0.07,2.449
			c0,0.248-0.09,0.69-0.39,0.69c-0.31,0-0.55-0.521-0.55-0.791c0-0.1,0.09-0.549,0.1-0.639c0.07-0.57,0.08-1.129,0.08-1.699
			c0-0.199,0-1.289-0.06-1.49c-0.02-0.059-0.02-0.059-0.13-0.139c-1.519,1.479-2.699,1.969-3.458,2.229l-0.04-0.061
			c2.039-1.248,4.708-4.617,4.708-5.027c0-0.25-0.27-0.479-0.5-0.669c0.13-0.02,0.26-0.04,0.44-0.04c0.62,0,1.309,0.78,1.309,1.01
			C137.086,44.678,137.046,44.709,136.776,44.889z"/>
		<path class="st0" d="M142.708,46.047c-0.17,1.58-0.19,1.76-0.309,2.199c-0.39,1.379-1.409,2.379-2.269,2.729l-0.06-0.061
			c1.579-1.598,1.799-3.258,1.799-4.717c0-0.459-0.03-0.629-0.19-0.75c-0.06-0.049-0.54-0.189-0.63-0.219
			c0.09-0.041,0.5-0.211,0.58-0.24c0.06-0.031,0.13-0.031,0.18-0.031c0.2,0,1.029,0.191,1.029,0.522
			C142.838,45.569,142.719,45.957,142.708,46.047z M145.007,50.125c-0.13,0.1-0.45,0.35-0.73,0.629
			c-0.03,0.031-0.07,0.061-0.11,0.061c-0.15,0-0.69-0.859-0.69-1.049c0-0.08,0.15-0.391,0.16-0.461c0.04-0.18,0.09-0.699,0.09-1.748
			c0-0.27-0.02-2.408-0.04-2.539c-0.04-0.229-0.36-0.35-0.789-0.479c0.19-0.111,0.41-0.24,0.68-0.24c0.32,0,1.149,0.25,1.149,0.6
			c0,0.09-0.13,0.49-0.15,0.58c-0.07,0.398-0.18,3.227-0.18,3.727c0,0.111,0.03,0.16,0.1,0.16c0.27,0,1.909-1.129,3.548-2.998
			l0.07,0.08C147.216,48.416,145.767,49.535,145.007,50.125z"/>
	</g>
</g>
</svg>
