<?xml version="1.0" encoding="UTF-8"?><svg id="_レイヤー_4" xmlns="http://www.w3.org/2000/svg" viewBox="0 0 163.77 56.77"><defs><style>.cls-1{fill: #557368;}
</style></defs><g><path class="cls-1" d="M61.81,56.25h-6.51c-.52,0-.71,.03-.92,.06l-.15-.32c.52,.05,1.13,.05,1.22,.05h2.16c0-.62,0-3.35,0-3.91h-1.84c-.53,0-.71,.02-.93,.06l-.14-.32c.52,.04,1.13,.05,1.22,.05h1.68c0-1.91-.03-2.2-.22-2.78l1.19,.3c.05,0,.14,.03,.14,.11s-.28,.29-.33,.34c0,.27-.02,.99-.02,1.49v.54h1.58l.41-.5c.04-.05,.08-.11,.13-.11,.06,0,.1,.05,.16,.09l.64,.5c.05,.04,.09,.08,.09,.13,0,.09-.07,.09-.13,.09h-2.88c0,.39,0,2.13,0,2.48,0,.15,0,1.18-.02,1.43h2.08l.49-.5s.07-.09,.12-.09,.11,.06,.15,.09l.66,.48s.09,.09,.09,.13c0,.09-.08,.09-.13,.09Z"/><path class="cls-1" d="M67.27,49.62s.05,.06,.05,.13c0,.09-.26,.26-.3,.3,0,.26,.03,1.56,.03,1.86,0,.25-.32,.34-.5,.34-.16,0-.22-.13-.22-.23,0-.05,0-.09,.02-.14h-1.4c0,.82,0,1.77,0,2.46,0,.4,0,1.37,.03,1.73,0,.09,0,.15,0,.18,0,.33-.44,.38-.51,.38-.26,0-.26-.18-.26-.24,0-.14,.05-.85,.06-1.01,.03-.83,.03-1.29,.03-5.41,0-.33-.02-.5-.09-.9l.88,.42h1.14l.28-.23c.06-.05,.1-.08,.15-.08,.03,0,.08,.03,.1,.05l.5,.38Zm-2.32,.92h1.41v-.84h-1.41v.84Zm0,1.13h1.41v-.92h-1.41v.92Zm3.18,1.18l.16-.23c.04-.07,.08-.11,.16-.11,.05,0,.12,.06,.15,.08l.33,.28c.06,.05,.08,.07,.08,.11,0,.05-.05,.1-.25,.29,0,.54,0,1.13,.03,1.51,0,.07,.03,.38,.03,.44,0,.34-.32,.4-.55,.4-.13,0-.17-.06-.17-.2,0-.05,.02-.18,.02-.23h-1.56c0,.07,.02,.16,.02,.21,0,.34-.44,.34-.47,.34-.23,0-.23-.19-.23-.26,0-.21,.07-1.68,.07-2,0-.44-.03-.67-.07-.97l.69,.33h1.55Zm-1.56,.2v.84h1.56v-.84h-1.56Zm0,1.04v.9h1.56v-.9h-1.56Zm3.32-4.6l.24-.22c.08-.08,.12-.1,.19-.1,.05,0,.08,.03,.13,.06l.44,.38s.08,.09,.08,.14-.04,.09-.12,.15c-.09,.08-.14,.11-.21,.17,0,.53,.03,5.61,0,5.84-.03,.21-.15,.61-1.07,.85-.09-.4-.28-.77-.94-1.05l.03-.06c.57,.05,.91,.06,.98,.06,.35,0,.35-.11,.35-.33v-3.52h-1.44c.03,.32-.37,.38-.47,.38-.25,0-.25-.18-.25-.26,0-.09,.04-1.76,.04-2.09,0-.4-.02-.57-.05-.8l.84,.4h1.24Zm-1.36,.2v.84h1.44v-.84h-1.44Zm0,1.04v.92h1.44v-.92h-1.44Z"/><path class="cls-1" d="M78.7,55.79c-.23,0-.36-.22-.44-.36-.66-1.09-1.05-1.64-1.73-2.18-1.31,1.56-2.61,2.38-3.81,2.6v-.07c2.04-.95,4.15-3.81,4.43-5.02-.03,0-1.74,.32-2.19,.54-.25,.13-.28,.14-.35,.14-.13,0-.67-.39-.67-.94,0-.22,.03-.28,.08-.38,.35,.45,.42,.55,.7,.55,.21,0,2.08-.16,2.43-.38,.06-.04,.33-.27,.4-.27,.11,0,.78,.63,.78,.77,0,.09-.06,.12-.33,.22-.08,.03-.11,.09-.24,.33-.56,1.03-.66,1.2-1.1,1.77,1.04,.44,2.38,1.46,2.38,2.23,0,.21-.08,.47-.33,.47Z"/><path class="cls-1" d="M86.36,51.28c-.19,.08-.2,.08-.54,.69-1.42,2.5-2.23,3.01-2.89,3.42-.75,.48-1.39,.63-1.67,.7l-.02-.06c1.2-.63,2.13-1.54,2.88-2.54-.14-.04-.28-.22-.31-.25-.61-.72-.65-.77-1.03-.99-.38,.4-.87,.83-1.46,1.09l-.02-.05c.93-.92,2.06-2.78,2.06-3.13,0-.28-.3-.38-.51-.46,.12-.07,.25-.15,.46-.15,.49,0,1.04,.4,1.04,.62,0,.08-.03,.1-.21,.29-.08,.09-.16,.21-.22,.29,.38,.03,1.28-.09,1.5-.16,.07-.03,.38-.24,.45-.24,.09,0,.71,.61,.71,.75,0,.09-.03,.09-.24,.17Zm-2.16-.03c-.08,0-.16,0-.46-.21-.48,.67-.82,1.07-.85,1.09,.39,.03,1.46,.17,1.56,.91,.66-1.03,.89-1.69,.99-2-1.02,.19-1.13,.21-1.25,.21Z"/><path class="cls-1" d="M92.97,50.4c-.24,.17-.34,.28-.55,.51-.14,.14-.73,.81-.85,.95,.15,.08,.44,.29,.44,.41,0,.06-.09,.3-.09,.35,0,.07-.03,.52-.03,1.07,0,.33,.06,1.8,.06,2.09,0,.21-.08,.59-.33,.59s-.47-.44-.47-.67c0-.09,.08-.47,.09-.55,.06-.49,.07-.97,.07-1.45,0-.17,0-1.1-.05-1.27q-.02-.05-.11-.12c-1.3,1.26-2.31,1.68-2.96,1.91l-.03-.05c1.74-1.07,4.02-3.95,4.02-4.3,0-.21-.23-.41-.43-.57,.11-.02,.22-.03,.38-.03,.53,0,1.12,.67,1.12,.86,0,.1-.03,.13-.27,.28Z"/><path class="cls-1" d="M98.04,51.39c-.15,1.35-.16,1.5-.26,1.88-.33,1.18-1.21,2.03-1.94,2.33l-.05-.05c1.35-1.37,1.54-2.79,1.54-4.03,0-.39-.03-.54-.16-.64-.05-.04-.46-.16-.54-.19,.08-.03,.43-.18,.5-.2,.05-.03,.11-.03,.15-.03,.17,0,.88,.16,.88,.44,0,.08-.1,.41-.11,.49Zm1.96,3.49c-.11,.09-.38,.3-.62,.54-.03,.03-.06,.05-.09,.05-.13,0-.59-.73-.59-.9,0-.07,.13-.33,.14-.39,.03-.15,.08-.6,.08-1.5,0-.23-.02-2.06-.03-2.17-.04-.2-.31-.3-.68-.41,.16-.09,.35-.21,.58-.21,.27,0,.98,.21,.98,.51,0,.08-.11,.42-.13,.5-.06,.34-.15,2.76-.15,3.19,0,.09,.03,.14,.08,.14,.23,0,1.63-.96,3.03-2.56l.06,.07c-.77,1.68-2.01,2.64-2.66,3.14Z"/></g><g><path class="cls-1" d="M0,2.5H4.78c3.87,0,6.93,.63,9.84,3.34,2.78,2.6,4.22,6.15,4.22,9.95s-1.41,7.14-4.08,9.7c-2.92,2.81-6.05,3.52-9.98,3.52H0V2.5ZM4.75,27.42c3.48,0,6.36-.7,8.89-3.2,2.25-2.25,3.52-5.27,3.52-8.44,0-3.38-1.34-6.54-3.83-8.82-2.53-2.29-5.27-2.88-8.58-2.88H1.69V27.42h3.06Z"/><path class="cls-1" d="M39.05,20.88c0,4.82-3.76,8.47-8.54,8.47s-8.44-3.83-8.44-8.44,3.73-8.51,8.44-8.51,8.54,3.66,8.54,8.47Zm-15.4,.04c0,3.69,2.92,6.96,6.75,6.96s7.07-3.02,7.07-6.96-3.06-7.03-7.07-7.03-6.75,3.27-6.75,7.03Z"/><path class="cls-1" d="M45.34,14.8h.07c.74-1.51,2.36-2.39,4.08-2.39,2.07,0,3.73,1.05,4.57,2.95,.88-1.93,2.67-2.95,4.75-2.95,4.18,0,5.03,2.85,5.03,6.4v10.2h-1.58v-10.41c0-2.5-.39-4.71-3.48-4.71-3.38,0-4.18,2.95-4.18,5.77v9.35h-1.58v-10.02c0-2.53-.46-5.1-3.62-5.1-3.41,0-4.04,3.55-4.04,6.19v8.93h-1.58V12.76h1.58v2.04Z"/><path class="cls-1" d="M84.4,29h-1.58v-2.92h-.07c-1.2,2.07-3.8,3.27-6.19,3.27-4.92,0-8.02-3.83-8.02-8.58s3.06-8.37,7.95-8.37c2.5,0,4.89,1.12,6.26,3.16h.07v-2.81h1.58V29Zm-14.27-8.23c0,3.73,2.46,7.1,6.4,7.1,4.15,0,6.4-3.38,6.4-7.28s-2.57-6.71-6.5-6.71c-3.73,0-6.29,3.38-6.29,6.89Z"/><path class="cls-1" d="M109.28,15.71c-.53-1.12-1.58-1.83-2.85-1.83-1.37,0-2.78,1.12-2.78,2.53,0,3.9,7.91,2,7.91,7.88,0,2.99-2.32,5.06-5.24,5.06-2.71,0-4.92-1.65-5.59-4.29l1.55-.49c.6,1.93,1.9,3.3,4.04,3.3s3.66-1.62,3.66-3.66-1.55-2.64-3.16-3.2c-2.21-.81-4.75-1.76-4.75-4.5,0-2.46,2.07-4.11,4.43-4.11,1.65,0,3.45,1.09,4.15,2.6l-1.37,.7Z"/><path class="cls-1" d="M118.28,29h-1.58V14.24h-1.79v-1.48h1.79V6.96h1.58v5.8h2.85v1.48h-2.85v14.77Z"/><path class="cls-1" d="M121.79,12.76h1.65l6.93,14.7,6.22-14.7h1.62l-10.9,25.73h-1.62l3.9-9.21-7.8-16.52Z"/><path class="cls-1" d="M143.38,29h-1.58V0h1.58V29Z"/><path class="cls-1" d="M149.67,21.02c-.11,4.11,2.74,6.86,6.5,6.86,2.53,0,4.57-1.51,5.73-3.69l1.34,.77c-1.48,2.81-4.08,4.39-7.28,4.39-4.82,0-7.88-3.9-7.88-8.51s3.13-8.44,7.88-8.44,7.84,3.94,7.8,8.61h-14.1Zm12.52-1.48c-.39-2.99-2.85-5.66-6.19-5.66s-6.05,2.6-6.33,5.66h12.52Z"/></g></svg>
