<svg viewBox="0 0 84.35 34.53" xmlns="http://www.w3.org/2000/svg"><g fill="#221714"><path d="m25.92 19.11c.18.11.22.24.13.4-.07.11-.21.34-.42.7s-.47.77-.78 1.23-.65.95-1.03 1.46-.77.99-1.18 1.43-.81.82-1.2 1.12-.75.47-1.08.52c-.2 0-.38-.03-.53-.1-.31-.13-.56-.3-.73-.5-.18-.2-.3-.48-.37-.85s-.07-.83-.02-1.4c.06-.57.18-1.28.38-2.15.13-.58.32-1.27.57-2.08.24-.81.51-1.67.8-2.58.24-.75.51-1.6.8-2.53s.54-1.83.75-2.68.35-1.6.43-2.25c.08-.64.03-1.03-.15-1.17-.02 0-.04 0-.07-.02-.02-.01-.04-.02-.07-.02-.35-.04-.75.13-1.18.53s-.89.95-1.37 1.67c-.48.71-.96 1.53-1.45 2.46s-.97 1.9-1.43 2.91c-.47 1.01-.9 2.03-1.32 3.06-.41 1.03-.77 1.99-1.08 2.88-.04.18-.17.24-.37.2-.07-.02-.11-.07-.13-.13-.02 0-.03 0-.03-.02s-.01-.02-.03-.02l-.17-.27c-.04-.09-.06-.17-.03-.23.42-1.73.79-3.5 1.12-5.31.32-1.81.57-3.5.75-5.06s.25-2.92.23-4.06-.17-1.93-.43-2.35c-.07-.11-.16-.19-.27-.23-.58 0-1.13.22-1.67.67-.53.44-1.06 1.04-1.58 1.8-.52.75-1.02 1.64-1.5 2.65s-.93 2.09-1.37 3.25c-.43 1.15-.84 2.35-1.23 3.6-.39 1.24-.75 2.46-1.08 3.66-.24 1.31-.48 2.56-.7 3.75s-.43 2.25-.62 3.18-.35 1.71-.5 2.33-.25 1.02-.32 1.2c-.04.13-.13.2-.27.2h-.4c-.2-.04-.28-.17-.23-.37.04-.13.15-.65.33-1.55s.42-2.04.73-3.41c.29-1.44.58-2.94.87-4.48s.57-3.08.85-4.61.54-3.02.8-4.48c.25-1.45.49-2.81.7-4.06s.4-2.37.57-3.35.29-1.75.38-2.33c-.73.8-1.57 1.5-2.51 2.11s-1.84 1.12-2.68 1.53-1.56.72-2.15.93-.92.33-.98.35c-.18.07-.31.01-.4-.17-.04-.2.02-.33.2-.4.64-.22 1.22-.44 1.71-.65.5-.21 1.07-.48 1.7-.8s1.27-.69 1.91-1.1 1.27-.87 1.86-1.37c.6-.5 1.12-1.05 1.56-1.65v-.03l.03-.03s.03 0 .03-.02c0-.01.01-.02.03-.02h.03s.04-.03.07-.03h.43c.09 0 .17.03.23.1.04.04.07.12.07.23l-2.43 13.88c.49-1.46 1.02-2.86 1.58-4.2.57-1.33 1.17-2.51 1.8-3.55.63-1.03 1.3-1.85 2-2.46s1.42-.92 2.15-.92h.07c.38.04.68.21.9.5.35.44.56 1.19.62 2.23s.02 2.21-.1 3.51-.3 2.64-.53 4.03-.47 2.66-.72 3.81c.44-1.07.95-2.21 1.52-3.43s1.16-2.34 1.78-3.35 1.25-1.84 1.88-2.48 1.24-.93 1.81-.87c.07 0 .13.01.18.03.06.02.1.04.15.07h.03v.03c.15.07.28.18.37.33.2.31.29.74.27 1.28s-.11 1.19-.27 1.93-.37 1.56-.63 2.45c-.27.89-.56 1.82-.87 2.8-.31.95-.61 1.92-.9 2.9s-.52 1.89-.7 2.75c-.18.85-.28 1.6-.3 2.23s.09 1.08.33 1.35l.1.1s.04 0 .05.02c.01.01.03.02.05.02.02.02.09.03.2.03.35-.04.78-.31 1.28-.8s1-1.06 1.5-1.71.97-1.32 1.42-2c.44-.68.79-1.23 1.03-1.65.11-.15.24-.19.4-.1z"/><path d="m36.04 19.21c.13-.18.28-.2.43-.07.18.13.2.28.07.43-.73.95-1.43 1.68-2.08 2.18s-1.24.75-1.75.75c-.29 0-.51-.06-.67-.17-.02 0-.06-.02-.1-.07-.02 0-.03-.01-.03-.03-.02 0-.03 0-.03-.02s-.01-.02-.03-.02l-.07-.07-.07-.07c-.2-.24-.34-.57-.42-.98s-.06-.87.05-1.38c-.58.71-1.11 1.23-1.6 1.56s-.91.52-1.27.57h-.13c-.24 0-.44-.04-.6-.13-.35-.2-.54-.56-.57-1.08-.02-.52.13-1.12.47-1.78.51-1.07 1-1.79 1.48-2.18s.88-.62 1.22-.68c.07-.02.14-.03.23-.03h.27c.31.04.58.16.8.33.13.13.14.28.03.43-.11.16-.26.17-.43.03-.13-.13-.32-.2-.57-.2-.13.02-.32.16-.57.4-.24.24-.5.54-.77.9-.27.35-.51.74-.73 1.17-.22.42-.37.83-.43 1.23-.09.38-.09.63-.02.75.08.12.16.21.25.25.33-.04.79-.3 1.38-.78s1.27-1.3 2.05-2.48l.07-.07s.04-.03.07-.03l.03-.03h.1s.07.01.07.03h.03l.3.13c.16.07.21.19.17.37-.11.27-.22.57-.32.9s-.18.66-.23.98c-.06.32-.08.61-.08.87s.04.44.13.55c0 .02.01.03.03.03 0 .02.01.03.03.03l.1.1c.29.16.74.06 1.37-.28.62-.34 1.4-1.13 2.33-2.35z"/><path d="m45.06 19.18c.04-.07.11-.1.2-.1s.17.02.23.07c.09.13.1.28.03.43-.4.62-.82 1.29-1.27 2.01-.44.72-.89 1.37-1.33 1.95s-.87 1.03-1.28 1.35-.78.39-1.12.22c-.2-.13-.34-.3-.42-.5s-.12-.42-.12-.65.03-.47.08-.72c.06-.24.12-.48.18-.7.11-.42.25-.9.43-1.43s.35-1.04.53-1.51c.18-.48.39-1.03.63-1.65-.18.24-.51.53-.98.85-.48.32-.97.58-1.46.77-.5.19-.95.26-1.35.2s-.62-.33-.67-.82c-.02-.16.02-.37.12-.65s.23-.5.38-.68c.11-.13.24-.23.4-.28.15-.06.31 0 .47.15.18.11.27.32.27.63s-.12.63-.37.97c.49 0 .91-.11 1.27-.32.35-.21.67-.44.95-.68s.52-.46.73-.65.4-.26.58-.22c.07.02.14.05.23.08s.17.11.23.22c.07.13.06.32-.02.57-.08.24-.21.58-.38 1.02-.18.43-.39.98-.63 1.65s-.5 1.5-.77 2.5c-.11.44-.13.72-.07.83.07.11.14.19.23.23.13.09.34 0 .63-.28s.62-.67.98-1.17.76-1.07 1.18-1.71.83-1.3 1.23-1.96z"/><path d="m54.98 19.18c.13.18.12.32-.03.43-2.8 2.53-4.74 3.8-5.83 3.8-.24 0-.47-.07-.67-.2-.87-.62-.47-2.67 1.2-6.16.07-.11.16-.17.27-.17h.3c.09 0 .18.04.27.13.04.13.04.23 0 .3-.2.4-.42.86-.65 1.38s-.44 1.04-.62 1.56-.31 1-.38 1.43c-.08.43-.07.75.02.95.04.09.1.14.17.17.11.02.29 0 .53-.07s.58-.22 1.02-.47c.43-.24.98-.61 1.63-1.1s1.44-1.15 2.35-2c.07-.07.14-.09.23-.08s.16.04.2.08zm-3.13-5.83c-.11-.04-.19-.14-.23-.3s-.03-.31.03-.47c.07-.18.17-.3.32-.38.14-.08.27-.08.38-.02.11.04.19.14.23.28.04.15.03.31-.03.48-.2.38-.43.51-.7.4z"/><path d="m65.07 19.21c.13-.18.28-.2.43-.07.18.13.2.28.07.43-.73.95-1.43 1.68-2.08 2.18s-1.24.75-1.75.75c-.29 0-.51-.06-.67-.17-.02 0-.06-.02-.1-.07-.02 0-.03-.01-.03-.03-.02 0-.03 0-.03-.02s-.01-.02-.03-.02l-.07-.07-.07-.07c-.2-.24-.34-.57-.42-.98s-.06-.87.05-1.38c-.58.71-1.11 1.23-1.6 1.56s-.91.52-1.27.57h-.13c-.24 0-.44-.04-.6-.13-.35-.2-.54-.56-.57-1.08-.02-.52.13-1.12.47-1.78.51-1.07 1-1.79 1.48-2.18s.88-.62 1.22-.68c.07-.02.14-.03.23-.03h.27c.31.04.58.16.8.33.13.13.14.28.03.43-.11.16-.26.17-.43.03-.13-.13-.32-.2-.57-.2-.13.02-.32.16-.57.4-.24.24-.5.54-.77.9-.27.35-.51.74-.73 1.17-.22.42-.37.83-.43 1.23-.09.38-.09.63-.02.75.08.12.16.21.25.25.33-.04.79-.3 1.38-.78s1.27-1.3 2.05-2.48l.07-.07s.04-.03.07-.03l.03-.03h.1s.07.01.07.03h.03l.3.13c.16.07.21.19.17.37-.11.27-.22.57-.32.9s-.18.66-.23.98c-.06.32-.08.61-.08.87s.04.44.13.55c0 .02.01.03.03.03 0 .02.01.03.03.03l.1.1c.29.16.74.06 1.37-.28.62-.34 1.4-1.13 2.33-2.35z"/><path d="m75.66 19.11c.2-.07.33-.01.4.17s.01.31-.17.4c-.69.27-1.42.6-2.18 1.02-.77.41-1.56.87-2.38 1.38-.2.73-.44 1.52-.72 2.36s-.58 1.68-.92 2.51c-.33.83-.7 1.64-1.1 2.41-.4.78-.81 1.46-1.23 2.06-.27.38-.59.75-.97 1.12s-.78.7-1.2 1-.86.54-1.31.72-.88.27-1.28.27c-.64 0-1.08-.18-1.3-.53-.22-.36-.33-.78-.32-1.27s.1-.99.27-1.5.34-.92.52-1.23c.36-.62.84-1.28 1.45-1.98s1.3-1.4 2.06-2.11 1.6-1.4 2.5-2.08 1.8-1.32 2.71-1.91c.31-1.04.53-1.9.67-2.56-.53.51-1 .88-1.42 1.12-.41.23-.77.39-1.07.47s-.55.09-.75.05-.36-.11-.47-.2c-.31-.24-.47-.59-.48-1.05-.01-.45.13-.94.42-1.45.2-.35.44-.68.73-.98s.59-.57.92-.8.65-.41.98-.53.64-.17.93-.15c.24 0 .45.07.63.2s.31.29.4.47c.07.18.02.31-.13.4-.18.07-.31.02-.4-.13-.07-.16-.16-.24-.27-.27-.24-.09-.59 0-1.03.25-.44.26-.88.63-1.3 1.12-.67.73-1.05 1.31-1.15 1.75-.1.43 0 .68.3.73.3.06.75-.08 1.37-.42.61-.33 1.3-.9 2.08-1.7.04-.04.09-.07.15-.07h.35c.11 0 .19.03.23.1.07.09.09.18.07.27-.02.04-.09.32-.2.82s-.27 1.13-.47 1.88c.71-.44 1.41-.84 2.1-1.2.69-.35 1.34-.65 1.96-.9zm-12.85 14.68c.89-.2 1.71-.68 2.48-1.45s1.45-1.68 2.06-2.73 1.15-2.18 1.63-3.38.88-2.33 1.22-3.4c-.84.58-1.67 1.18-2.48 1.81s-1.56 1.28-2.26 1.93-1.32 1.3-1.86 1.93-.97 1.23-1.28 1.78c-.38.67-.62 1.31-.72 1.93s-.05 1.07.15 1.33c.2.24.56.32 1.07.23z"/><path d="m83.85 19.21c.13-.18.27-.18.4 0 .13.13.13.28 0 .43-.44.42-1.08.86-1.9 1.31-.82.46-1.7.78-2.63.98-.24.07-.54.1-.88.1s-.6-.06-.78-.17c-.55-.27-.75-.88-.6-1.83.09-.58.29-1.18.6-1.8s.68-1.17 1.1-1.63c.42-.47.85-.82 1.3-1.05.44-.23.83-.25 1.17-.05.27.22.37.54.3.97-.11.64-.46 1.19-1.03 1.65-.58.46-1.4.97-2.46 1.55-.02.18-.05.38-.08.62-.03.23 0 .46.08.68.04.11.11.22.18.32.08.1.24.15.48.15.29 0 .64-.06 1.05-.17s.83-.27 1.27-.47c.43-.2.87-.44 1.3-.72s.82-.57 1.15-.88zm-3.3-3.03c-.38.31-.74.69-1.08 1.13s-.63.97-.85 1.56c.98-.58 1.66-1.05 2.05-1.42s.6-.72.65-1.05c.04-.24 0-.4-.13-.47-.11-.11-.32-.03-.63.23z"/></g></svg>